<svg id="enxvydfjz7Z1" xmlns="http://www.w3.org/2000/svg" xmlns:xlink="http://www.w3.org/1999/xlink" viewBox="0 0 39.75 36" shape-rendering="geometricPrecision" text-rendering="geometricPrecision"><g><g><g><g><path d="M0.38,0h39v35h-39Z" fill="#fff"/><g><path d="M38.54,15.8L36.82,14l-1.71,1.8" fill="none" stroke-width="0.75" stroke-linecap="round" stroke-linejoin="round"/><path d="M38.54,19.45l-1.72,1.82-1.71-1.82" fill="none" stroke="#4a4a4a" stroke-width="0.75" stroke-linecap="round" stroke-linejoin="round"/><g><path d="M31.84,32.35h-25.41v-27.18c.089149-.782086.785987-1.350208,1.57-1.28h22.28c.780298-.064487,1.470865.502133,1.56,1.28Z" fill="#1299d1"/><path d="M31.46,32v-26.83c-.092295-.565532-.610193-.960539-1.18-.9L8,4.27c-.569807-.060539-1.087705.334468-1.18.9v26.83h24.64m.75.75h-26.15v-27.58c.038238-.47615.264173-.917575.628046-1.227055s.83584-.461631,1.311954-.422945h22.28c.987753-.074755,1.850277.662635,1.93,1.65Z" fill="#4a4a4a"/></g><g><path d="M8.65,5.71h10.59v26.71h-10.59Z" fill="#fff" stroke="#4a4a4a" stroke-width="0.75" stroke-miterlimit="10"/><path d="M19.24,5.71h10.59v26.71h-10.59Z" fill="#fff" stroke="#4a4a4a" stroke-width="0.75" stroke-miterlimit="10"/></g><path d="M0.38,32.42h39" fill="none" stroke="#4a4a4a" stroke-width="0.75" stroke-linecap="round" stroke-linejoin="round"/><path d="M16.82,2h4.63" fill="none" stroke="#4a4a4a" stroke-width="0.75" stroke-linecap="round" stroke-linejoin="round"/></g></g></g></g></g></svg>