<svg id="eEFJcq5Srdk1" xmlns="http://www.w3.org/2000/svg" xmlns:xlink="http://www.w3.org/1999/xlink" viewBox="-28 0 88.7 44.4" shape-rendering="geometricPrecision" text-rendering="geometricPrecision"><defs><filter id="eEFJcq5Srdk15-filter" x="-150%" width="400%" y="-150%" height="400%"><feComponentTransfer id="eEFJcq5Srdk15-filter-opacity-0" result="result"><feFuncA id="eEFJcq5Srdk15-filter-opacity-0-A" type="table" tableValues="0 1"/></feComponentTransfer></filter></defs><g><g><path d="M10.7,0.5c1.7,0,3.1.9,3.1,1.9c0,.1,0,.2,0,.3c3.8.3,7,1.2,7,2.5v17.8c0,4.9-3.9,8.8-8.8,8.8h-2.7c-4.9,0-8.8-3.9-8.8-8.8v-17.8c0-1.5,3.2-2.3,7.2-2.5c0-.1,0-.1,0-.2-.1-1.2,1.3-2,3-2Z" fill="#fff"/><path d="M12,32.2h-2.7C4.2,32.2,0,28.1,0,23L0,5.2c0-2.1,4.3-2.8,7.1-3C7.3,0.9,8.8,0,10.7,0s3.4,1,3.6,2.3c2.8.3,7,1,7,2.9v17.8c-.1,5.1-4.2,9.2-9.3,9.2ZM10.7,0.9c-1.4,0-2.6.7-2.6,1.5c0,0,0,.1,0,.1v.5h-.5C3,3.3,0.9,4.3,0.9,5.2v17.8c0,4.6,3.7,8.3,8.3,8.3h2.8c4.6,0,8.3-3.8,8.3-8.3v-17.8c0-.6-1.8-1.6-6.6-2h-.5l.1-.5c0-.1,0-.1,0-.2c0-.9-1.2-1.6-2.6-1.6Z" fill="#4a4a4a"/><polygon points="10.6,14.7 10.6,15.2 6.5,15.2 6.5,14.2 10.6,14.2 10.6,14.7" fill="#4a4a4a"/><polygon points="10.6,21.6 10.6,22.1 6.5,22.1 6.5,21.2 10.6,21.2 10.6,21.6" fill="#4a4a4a"/><polygon points="8.5,18 8.5,18.5 6.4,18.5 6.4,17.5 8.5,17.5 8.5,18" fill="#4a4a4a"/><polygon points="8.5,24.6 8.5,25.1 6.4,25.1 6.4,24.1 8.5,24.1 8.5,24.6" fill="#4a4a4a"/><polygon points="8.6,11.1 8.6,11.6 6.5,11.6 6.5,10.7 8.6,10.7 8.6,11.1" fill="#4a4a4a"/><path d="M9.2,31.9h2.8c.5,0,.9.4.9.9v0c0,.5-.4.9-.9.9h-2.8c-.5,0-.9-.4-.9-.9v0c0-.5.4-.9.9-.9c0,0,0,0,0,0Z" fill="#d1ab12"/><path d="M12.1,34.1h-2.9c-.7-.1-1.3-.7-1.2-1.5c0-.6.6-1.1,1.2-1.2h2.8c.7.1,1.3.7,1.2,1.5c0,.6-.5,1.1-1.1,1.2ZM9.2,32.3c-.2,0-.4.2-.4.4s.2.4.4.4h2.8c.2,0,.4-.2.4-.4s-.2-.4-.4-.4h-2.8Z" fill="#4a4a4a"/><path d="M9.7,35.7v-2.1h1.7v2.1c0,.5-.4.9-.9.9v0c-.4,0-.8-.4-.8-.9Z" fill="#fff"/><path d="M10.6,37.1c-.7,0-1.3-.6-1.3-1.3v-2.5h2.7v2.5c-.1.7-.7,1.3-1.4,1.3c0,0,0,0,0,0Zm-.4-3v1.6c0,.2.1.4.3.5.2,0,.4-.1.5-.3c0,0,0-.1,0-.1v-1.6h-.8Z" fill="#4a4a4a"/><path d="M0.9,14.9c0,0,3.5,4.9,8.4,5.2c2.4.1,7.3-2.6,11-.6.1,2.7.3,5-.9,7.4-.8,1.5-2,2.8-3.5,3.6-4.2,2.2-11.2,1.4-13.7-3.2-.9-1.5-1.4-3.3-1.3-5.1v-7.3Z" transform="translate(.077711 0)" filter="url(#eEFJcq5Srdk15-filter)" fill="#00b4ff"/><path d="M10.6,31.6c-.8,0-1.6-.1-2.3-.2-2.6-.4-4.9-1.9-6.2-4.1-.9-1.5-1.3-3.3-1.2-5.1v-7.2h.1c0,.1,3.6,4.9,8.4,5.2c1.1,0,2.1-.2,3.1-.5c2.4-.6,5.4-1.4,7.9-.1v0v0c0,.2,0,.4,0,.6.1,2.5.2,4.6-1,6.8-.8,1.5-2,2.8-3.5,3.6-1.7.6-3.5,1-5.3,1ZM0.9,15v7.1c-.1,1.8.3,3.5,1.2,5.1c1.3,2.2,3.6,3.7,6.2,4.1c2.5.5,5.2.2,7.5-.9c1.5-.8,2.7-2,3.5-3.6c1.1-2.2,1.1-4.4,1-6.8c0-.2,0-.4,0-.6-2.4-1.3-5.4-.5-7.8.1-1,.3-2.1.5-3.1.6-4.6-.2-8-4.4-8.5-5.1Z"/><polygon points="6.1,31.4 5.6,31.4 5.6,8.6 6.6,8.6 6.6,31.4 6.1,31.4" fill="#4a4a4a"/><path d="M23.2,27.3v-5.5c0-3.9,3.1-7,7-7s7,3.1,7,7v6.2c0,.1,0,.2-.1.3s-.2.1-.3.1-.2,0-.3-.1-.1-.2-.1-.3v-6.2c-.1-3.4-3-6-6.4-5.9-3.2.1-5.7,2.7-5.9,5.9v5.2v0v10.3c0,3.9-3.1,7-7,7s-7-3.1-7-7v-.5h.9v.5c-.1,3.4,2.5,6.2,5.9,6.4c3.4.1,6.2-2.5,6.4-5.9c0-.2,0-.3,0-.5l-.1-10v0Z" fill="#4a4a4a"/><path d="M36.3,24.6c.33,0,1.1,0,1.1,0c.5,0,.9.4.9.9v0c0,.5-.4.9-.9.9h-1.1c-.5,0-.9-.4-.9-.9v0c0-.5.4-.9.9-.9Z" fill="#d1ab12"/><path d="M37.4,26.8h-1.1c-.7-.1-1.3-.7-1.2-1.5.1-.6.6-1.2,1.2-1.2h1.1c.7.1,1.3.7,1.2,1.5-.1.7-.6,1.2-1.2,1.2Zm-1.1-1.7c-.2,0-.4.1-.5.3c0,.2.1.4.3.5c0,0,.1,0,.1,0h1.1c.2,0,.4-.2.3-.5c0-.2-.2-.3-.3-.3h-1Z" fill="#4a4a4a"/><polygon points="10.6,21.4 10.6,21.8 6.5,21.8 6.5,20.9 10.6,20.9 10.6,21.4" fill="#4a4a4a"/><polygon points="8.5,24.6 8.5,25.1 6.4,25.1 6.4,24.1 8.5,24.1 8.5,24.6" fill="#4a4a4a"/></g></g></svg>