<svg id="erv5aEALitD1" xmlns="http://www.w3.org/2000/svg" xmlns:xlink="http://www.w3.org/1999/xlink" viewBox="-20 0 96 40.71" shape-rendering="geometricPrecision" text-rendering="geometricPrecision"><g><g><path d="M8.53,33.87h-.18c-1.61803-.02675-2.92325-1.33197-2.95-2.95v-3h6.08v3c-.027292,1.637295-1.362477,2.950227-3,2.95Zm-.18-1h.18c1.069159-.005469,1.934531-.870841,1.94-1.94v-2h-4.07v2c.031552,1.061952.8879,1.913908,1.95,1.94Z" fill="#4a4a4a"/><path d="M10.45,0h20.33c.754542-.010669,1.479362.293756,2,.84.593482.628638,1.013826,1.400418,1.22,2.24l1.18,4.25h-1L33,3.35c-.158246-.66903-.481394-1.287825-.94-1.8-.334221-.349624-.796329-.548186-1.28-.55h-20.33c-.507787-.006534-.995934.195956-1.35.56-.448465.490141-.749956,1.096587-.87,1.75L6.37,11.85v0c-.020006.098576-.068715.189036-.14.26L1.28,16.9v7.84c.010965,1.761126,1.438849,3.184548,3.2,3.19h10.22l.05,1h-10.27c-2.315047-.010946-4.189054-1.884953-4.2-4.2v-8c.002272-.149577.067649-.291228.18-.39l5-4.81L7.25,3.11c.160369-.842446.555556-1.622419,1.14-2.25.540495-.555831,1.284732-.866531,2.06-.86Z" fill="#4a4a4a"/><path d="M12.37,2.89h16.92c.515275-.004706,1.010132.201183,1.37.57.379227.404713.63884.906631.75,1.45L32,7.33h-1l-.52-2.19c-.062515-.371923-.228915-.718591-.48-1-.172416-.179715-.410954-.280913-.66-.28h-16.97c-.250528.006085-.48964.106012-.67.28-.247464.282584-.410347.629145-.47,1L9.91,11.25l12,.05-.49,1-12.76-.05l1.59-7.33c.106529-.544993.366771-1.048127.75-1.45.36125-.37403.860013-.583655,1.38-.58Z" fill="#4a4a4a"/><path d="M12.37,2.88h16.92c.241978-.003284.482542.037374.71.12.235641.10159.44953.247578.63.43.183268.19014.338192.405686.46.64.13254.260306.233264.535619.3.82L32,7.33v0l-.6-2.42c-.068381-.28068-.169052-.552493-.3-.81-.117458-.231439-.269166-.44383-.45-.63-.187256-.180983-.408055-.323654-.65-.42-.235575-.093107-.486693-.140616-.74-.14h-16.89c-.253307-.000616-.504425.046893-.74.14-.235641.10159-.44953.247578-.63.43-.183106.184263-.335083.39703-.45.63-.127669.257875-.224986.529693-.29.81L8.68,12.23l12.7.06v0L8.65,12.26l1.59-7.34c.055483-.284828.14969-.560722.28-.82.127948-.23559.289659-.451204.48-.64.174831-.192144.38542-.348388.62-.46.2387-.094361.493333-.141892.75-.14Zm16.92,1h-16.92c-.129999.015397-.25571.056168-.37.12-.115634.049857-.22081.121106-.31.21-.112314.118987-.206644.253743-.28.4-.082242.175292-.142692.360002-.18.55l-1.3,6.07l11.93.06v0l-12-.05l1.33-6.13c.040599-.190415.104409-.375128.19-.55.070848-.150738.165378-.289157.28-.41.102966-.070804.21829-.121683.34-.15.112803-.052385.235627-.079679.36-.08h16.93c.124373.000321.247197.027615.36.08.118316.044828.224486.116749.31.21.117907.120332.21581.258747.29.41.084572.179779.151551.36732.2.56L31,7.33v0l-.52-2.18c-.043965-.194012-.111115-.38203-.2-.56-.069883-.1483-.164578-.283577-.28-.4-.086221-.087869-.187926-.159063-.3-.21-.111525-.044134-.230079-.067845-.35-.07Z" fill="#4a4a4a"/><path d="M13.68,17.38h1l.95,1h-2c-.624082,0-1.13.505918-1.13,1.13v4.4c.010378.301564.140934.586451.362583.791195s.515978.312335.817417.298805h.86l.05,1h-.91c-.567356.000514-1.111245-.226406-1.51-.63-.403019-.395038-.630081-.93566-.63-1.5v-4.4c.005474-1.179615.960385-2.134526,2.14-2.14Z" fill="#4a4a4a"/><path d="M5.16,17.14h1.76c1.353098,0,2.45,1.096902,2.45,2.45v.68h-5v-2.27c-.000033-.448997.361037-.814524.81-.82Z" fill="#00b4ff" fill-rule="evenodd"/><path d="M5.16,16.64h1.76c1.61803.02675,2.92325,1.33197,2.95,2.95v1.19h-6v-2.78c-.002665-.349163.134174-.684941.380137-.932781s.58069-.387229.929863-.387219Zm1.76,1h-1.76c-.082379-.000423-.161538.03196-.22.09-.055492.060117-.087446.138227-.09.22v1.81h4v-.18c-.005469-1.069159-.870841-1.934531-1.94-1.94Z" fill="#00b4ff"/><path d="M4.29,22.89h4.39c.326216,0,.639072.129589.869741.360259s.360259.543525.360259.869741v1.31h-5.62v-2.54Z" fill="#00b4ff" fill-rule="evenodd"/><path d="M4.29,22.39h4.39c.953181.005462,1.724538.776819,1.73,1.73v1.81h-6.62v-3.54Zm4.39,1h-3.88v1.53h4.6v-.81c0-.397645-.322355-.72-.72-.72Z" fill="#00b4ff"/><path d="M4.7,9h-2.49c-.32173-.002692-.631065.123925-.85857.35143s-.354122.53684-.35143.85857c-.000826.244111.09646.478318.27.65.169674.176502.405208.274339.65.27h3.08v-1.81c-.001017-.08411-.037298-.163929-.1-.22-.049886-.059662-.122339-.095888-.2-.1ZM2.21,8h2.49c.352866-.000868.69139.139583.94.39.237916.250415.367302.584662.36.93v2.82h-4.07c-1.061391-.010831-1.919169-.868609-1.93-1.93.005475-1.218274.991726-2.204525,2.21-2.21Z" fill="#4a4a4a"/><path d="M22.4,40.71h-.18c-1.637295-.027292-2.950227-1.362477-2.95-3v-3h6.08v3c0,1.656854-1.343146,3-3,3Zm-.18-1h.18c1.069159-.005469,1.934531-.870841,1.94-1.94v-2h-4.06v2c.005469,1.069159.870841,1.934531,1.94,1.94Z" fill="#4a4a4a"/><path d="M47.79,40.69h-.18c-1.637523.000227-2.972708-1.312705-3-2.95v-3h6.08v3c-.027292,1.637295-1.362477,2.950227-3,2.95Zm-.18-1h.18c.514157-.000948,1.00691-.205962,1.37-.57.367839-.360531.573547-.854951.57-1.37v-2h-4.06v2c.005469,1.069159.870841,1.934531,1.94,1.94Z" fill="#4a4a4a"/><path d="M24.32,6.84h20.33c.753603-.005874,1.476595.297783,2,.84.584032.632433.997056,1.403413,1.2,2.24l2.34,8.39l5.17,4.86c.098485.094371.155946.22366.16.36v0v8c-.010984,2.318932-1.891049,4.194531-4.21,4.2h-33c-2.319596,0-4.2-1.880404-4.2-4.2v-8c-.000158-.147281.06594-.286822.18-.38l5-4.82L21.12,10c.156144-.858618.551267-1.655795,1.14-2.3.540495-.555831,1.284732-.866531,2.06-.86Zm20.33,1h-20.33c-.501083.003374-.978606.213195-1.32.58-.453149.484292-.758469,1.087993-.88,1.74l-1.86,8.53v0c-.022334.0948-.070842.181422-.14.25l-5,4.81v7.83c.00549,1.765032,1.434968,3.19451,3.2,3.2h33c1.765032-.00549,3.19451-1.434968,3.2-3.2v-7.83L49.4,19c-.063771-.064851-.111685-.143567-.14-.23l-2.38-8.53c-.160613-.668145-.483473-1.286388-.94-1.8-.336963-.350442-.803874-.545893-1.29-.54Z" fill="#4a4a4a"/><path d="M26.25,10.24h16.91c.9,0,1.43.76,1.63,1.63l1.62,6.83-23.25-.11l1.45-6.72c.19-.88.74-1.63,1.64-1.63Z" fill="#00b4ff" fill-rule="evenodd"/><path d="M26.25,9.74h16.91c.51643-.010722,1.013585.196123,1.37.57.380211.400085.640123.899116.75,1.44l1.77,7.45-24.52-.11l1.59-7.33c.108308-.5423.364404-1.044109.74-1.45.367976-.368972.868917-.574394,1.39-.57Zm16.91,1h-16.91c-.252278-.002481-.494506.098748-.67.28-.252782.279073-.416444.627291-.47,1l-1.33,6.11l22,.1L44.3,12c-.062515-.371923-.228915-.718591-.48-1-.172416-.179715-.410954-.280913-.66-.28Z" fill="#4a4a4a"/><path d="M27.55,24.23h14.76c.565727-.002675,1.109056.220876,1.50909.62091s.623585.943363.62091,1.50909v4.4c.002675.565727-.220876,1.109056-.62091,1.50909s-.943363.623585-1.50909.62091h-14.76c-.578878.009412-1.137303-.213958-1.55-.62-.403594-.398755-.630514-.942644-.63-1.51v-4.4c-.000514-.567356.226406-1.111245.63-1.51.402862-.396219.944946-.618796,1.51-.62Zm14.76,1h-14.76c-.624082,0-1.13.505918-1.13,1.13v4.4c0,.624082.505918,1.13,1.13,1.13h14.76c.621818-.005431,1.124569-.508182,1.13-1.13v-4.4c-.005431-.621818-.508182-1.124569-1.13-1.13Z" fill="#4a4a4a"/><path d="M19,24h1.75c1.349202-.000011,2.444493,1.090809,2.45,2.44v.69h-5v-2.33c.010544-.437386.362614-.789456.8-.8Z" fill="#fc0" fill-rule="evenodd"/><path d="M19,23.48h1.75c.783551.005927,1.533685.318184,2.09.87.551222.551809.860587,1.300039.86,2.08v1.19h-6v-2.82c.002307-.347342.138407-.68043.38-.93.24861-.250417.587134-.390868.94-.39Zm1.75,1h-1.75c-.082169.000641-.160942.032866-.22.09-.060807.057444-.096703.136415-.1.22v1.81h4v-.18c-.031552-1.061952-.8879-1.913908-1.95-1.94Z" fill="#4a4a4a"/><path d="M18.17,29.74h4.38c.331481-.000099.64897.1336.880522.3708s.357563.557817.349478.8892v1.31h-5.61v-2.57Z" fill="#fc0" fill-rule="evenodd"/><path d="M18.17,29.23h4.38c.458378.000644.897537.184227,1.22.51.337823.330803.522617.787353.51,1.26v1.82h-6.62v-3.59Zm4.38,1h-3.88v1.53h4.6v-.76c0-.397645-.322355-.72-.72-.72Z" fill="#4a4a4a"/><path d="M50.78,24.09h-1.78c-1.350821.00548-2.44452,1.099179-2.45,2.45v.68h5v-2.31c0-.217478-.086393-.426048-.240172-.579828s-.36235-.240172-.579828-.240172Z" fill="#fc0" fill-rule="evenodd"/><path d="M50.78,24.6h-1.78c-.514157.000948-1.00691.205962-1.37.57-.367839.360531-.573547.854951-.57,1.37v.18h4v-1.81c-.003297-.083585-.039193-.162556-.1-.22-.056329-.061183-.13694-.09416-.22-.09Zm-1.75-1h1.75c.352866-.000868.69139.139583.94.39.245226.247181.38196.581818.38.93v2.82h-6v-1.2c.027292-1.637295,1.362477-2.950227,3-2.95Z" fill="#4a4a4a"/><path d="M51.66,29.85h-4.39c-.331362-.010791-.653049.112642-.89214.342321s-.37534.546151-.37786.877679v1.31h5.62v-2.53Z" fill="#fc0" fill-rule="evenodd"/><path d="M51.15,30.35h-3.88c-.397645,0-.72.322355-.72.72v.81h4.6v-1.53Zm-3.88-1h4.89v3.54h-6.62v-1.82c-.003917-.459284.180377-.900146.51-1.22.322463-.325773.761622-.509356,1.22-.51Z" fill="#4a4a4a"/><path d="M50.84,14.93h2.5c.584577-.003426,1.146261.227008,1.56.64.416304.416422.650118.981174.65,1.57.002708.511779-.200086,1.003236-.562912,1.364182s-.85533.561184-1.367088.555818h-4.09v-2.82c-.002689-.348251.134464-.68302.380722-.929278s.581027-.383411.929278-.380722Zm2.5,1h-2.5c-.082217,0-.161067.032661-.219203.090797s-.090797.136986-.090797.219203v1.82h3.09c.246057.000532.481355-.100827.65-.28.173951-.167285.271566-.398669.27-.64.003027-.318996-.123232-.625626-.35-.85-.223999-.228535-.53-.358136-.85-.36Z" fill="#4a4a4a"/><path d="M18.58,15.85h-2.5c-.32.001864-.626001.131465-.85.36-.228742.223045-.355365.530558-.35.85-.001566.241331.096049.472715.27.64.171682.17354.405889.270826.65.27h3.09v-1.81c0-.171208-.138792-.31-.31-.31Zm-2.5-1h2.5c.726749.005444,1.314556.593251,1.32,1.32v2.83h-4.1c-.508006-.007152-.99425-.20737-1.36-.56-.363453-.35939-.568601-.848867-.57-1.36-.000118-.588826.233696-1.153578.65-1.57.412723-.415718.9742-.649667,1.56-.65Z" fill="#4a4a4a"/><polygon points="34.74,32.08 34.26,32.08 34.26,25.04 35.23,25.04 35.23,32.08 34.74,32.08 34.74,32.08" fill="#4a4a4a"/><polygon points="37.43,32.23 36.94,32.23 36.94,24.92 37.91,24.92 37.91,32.23 37.43,32.23 37.43,32.23" fill="#4a4a4a"/><polygon points="29.42,32.03 28.94,32.03 28.94,24.99 29.91,24.99 29.91,32.03 29.42,32.03 29.42,32.03" fill="#4a4a4a"/><polygon points="32.11,32.17 31.62,32.17 31.62,24.87 32.59,24.87 32.59,32.17 32.11,32.17 32.11,32.17" fill="#4a4a4a"/><polygon points="40.29,31.97 39.8,31.97 39.8,24.94 40.77,24.94 40.77,31.97 40.29,31.97 40.29,31.97" fill="#4a4a4a"/></g></g></svg>