<svg id="e0WNcfZ92PH1" xmlns="http://www.w3.org/2000/svg" xmlns:xlink="http://www.w3.org/1999/xlink" viewBox="0 0 1895.08 484.23" shape-rendering="geometricPrecision" text-rendering="geometricPrecision"><g><g><rect width="1895.08" height="141" rx="0" ry="0" transform="translate(0 344.23)" fill="#fff"/><g><circle r="6.5" transform="translate(416.25 126.73)" fill="none" stroke="#fffbeb" stroke-width="2" stroke-miterlimit="10"/><path d="M416,149.05l-11-11c-4.451643-4.449554-5.784228-11.142761-3.376264-16.95803s8.082167-9.607132,14.376264-9.607132s11.968299,3.791862,14.376264,9.607132s1.075379,12.508476-3.376264,16.95803v0Z" fill="none" stroke="#fffbeb" stroke-width="2" stroke-miterlimit="10"/></g><polygon points="235.75,275.23 241.14,275.23 345.18,275.23 384.75,275.23 384.75,196.23 415.75,196.23 415.75,295.23 427.75,295.23 427.75,210.11 463.88,131.23 498.75,131.23 498.75,275.23 543.75,275.23 543.75,201.23 598.75,201.23 598.75,275.23 610.75,275.23 610.75,241.23 649.75,241.23 649.75,183.32 681.74,159.58 711.75,183.32 711.75,268.23 770.75,268.23 770.75,185.41 822.75,150.18 822.75,261.23 858.75,261.23 858.75,275.85 858.75,292.23 885.75,292.23 885.75,343.23 202.75,343.23 202.75,317.23 235.75,317.23 235.75,275.23 235.75,275.23" fill="#50d7ff"/><polygon points="349.75,306.23 413.75,306.23 413.75,213.23 349.75,213.23 349.75,306.23 349.75,306.23" fill="#fdfdfd" stroke="#514d4b" stroke-width="2" stroke-miterlimit="2.61"/><polygon points="363.75,243.23 375.75,243.23 375.75,231.23 363.75,231.23 363.75,243.23 363.75,243.23" fill="#fdfdfd" stroke="#514d4b" stroke-width="2" stroke-miterlimit="2.61"/><rect width="38" height="3" rx="0" ry="0" transform="translate(165.75 317.23)" fill="#fdfdfd" stroke="#514d4b" stroke-width="2" stroke-miterlimit="2.61"/><rect width="38" height="3" rx="0" ry="0" transform="translate(165.75 323.23)" fill="#fdfdfd" stroke="#514d4b" stroke-width="2" stroke-miterlimit="2.61"/><rect width="44" height="3" rx="0" ry="0" transform="translate(162.75 330.23)" fill="#fdfdfd" stroke="#514d4b" stroke-width="2" stroke-miterlimit="2.61"/><line x1="168.75" y1="343.23" x2="168.75" y2="333.23" fill="none" stroke="#514d4b" stroke-width="2" stroke-miterlimit="2.61"/><line x1="200.75" y1="333.23" x2="200.75" y2="343.23" fill="none" stroke="#514d4b" stroke-width="2" stroke-miterlimit="2.61"/><rect width="38" height="3" rx="0" ry="0" transform="translate(687.08 317.23)" fill="#fdfdfd" stroke="#514d4b" stroke-width="2" stroke-miterlimit="2.61"/><rect width="38" height="3" rx="0" ry="0" transform="translate(687.08 323.23)" fill="#fdfdfd" stroke="#514d4b" stroke-width="2" stroke-miterlimit="2.61"/><rect width="44" height="3" rx="0" ry="0" transform="translate(684.08 330.23)" fill="#fdfdfd" stroke="#514d4b" stroke-width="2" stroke-miterlimit="2.61"/><line x1="690.08" y1="343.23" x2="690.08" y2="333.23" fill="none" stroke="#514d4b" stroke-width="2" stroke-miterlimit="2.61"/><line x1="722.08" y1="333.23" x2="722.08" y2="343.23" fill="none" stroke="#514d4b" stroke-width="2" stroke-miterlimit="2.61"/><g><path d="M433.25,147.73c18,12,76,46.38,148,47c116,1,263-44,270-44c0,0,190.5-45.5,278-46c99.93-.57,206.76,4.07,290.34,65.94c30.27,22.4,61.22,64.77,28.32,99.26-15.28,16-37.6,23-59.17,27.93-47.55,10.94-97,15.23-145.31,8.11-43.85-6.47-86.8-22.66-122.21-49.63-31.08-23.67-61.2-62.85-53.24-104.19c11.54-59.87,77.82-72.47,128.64-71.29c62.36,1.45,124,12.63,184.87,25.38c58.11,12.17,117.26,31,194.26,29.49" fill="none" stroke="#69f" stroke-width="2" stroke-miterlimit="10" stroke-dasharray="5,12"/></g><polygon points="884.75,261.23 933.75,261.23 933.75,216.23 1001.75,216.23 1001.75,158.02 1061.75,133.42 1061.18,261.23 1110.75,261.23 1110.75,181.23 1125.75,181.23 1125.75,118.23 1134.75,118.23 1134.75,35.23 1139.75,35.23 1139.75,118.23 1149.75,118.23 1149.75,180.23 1163.75,180.23 1163.75,239.23 1180.75,239.23 1180.75,216.23 1208.75,216.23 1208.75,70.23 1273.75,70.23 1273.75,261.23 1280.75,261.23 1280.75,184.23 1340.75,184.23 1340.75,261.23 1363.75,261.23 1363.75,219.23 1402.75,219.23 1402.75,186.42 1444.22,161.48 1488.75,186.42 1488.75,251.23 1561.75,251.23 1561.75,149.23 1625.75,149.23 1625.75,243.23 1669.75,243.23 1669.75,261.15 1669.75,281.23 1702.75,281.23 1702.75,342.23 1670.13,342.23 1663.6,343.23 884.75,343.23 884.75,261.23 884.75,261.23" fill="#50d7ff"/><polygon points="1684.75,343.23 1706.75,343.23 1706.75,268.23 1684.75,268.23 1684.75,343.23 1684.75,343.23" fill="#fdfdfd" stroke="#514d4b" stroke-width="2" stroke-miterlimit="2.61"/><polygon points="1314.75,343.23 1400.75,343.23 1400.75,204.23 1314.75,204.23 1314.75,343.23 1314.75,343.23" fill="#fdfdfd" stroke="#514d4b" stroke-width="2" stroke-miterlimit="2.61"/><polygon points="1325.75,246.23 1339.75,246.23 1339.75,220.23 1325.75,220.23 1325.75,246.23 1325.75,246.23" fill="#fdfdfd" stroke="#514d4b" stroke-width="2" stroke-miterlimit="2.61"/><polygon points="1325.75,246.23 1339.75,246.23 1339.75,239.23 1325.75,239.23 1325.75,246.23 1325.75,246.23" fill="#fdfdfd" stroke="#514d4b" stroke-width="2" stroke-miterlimit="2.61"/><polygon points="1351.75,246.23 1365.75,246.23 1365.75,220.23 1351.75,220.23 1351.75,246.23 1351.75,246.23" fill="#fdfdfd" stroke="#50d7ff" stroke-width="2" stroke-miterlimit="2.61"/><polygon points="1351.75,246.23 1365.75,246.23 1365.75,239.23 1351.75,239.23 1351.75,246.23 1351.75,246.23" fill="#fdfdfd" stroke="#50d7ff" stroke-width="2" stroke-miterlimit="2.61"/><polygon points="1378.75,246.23 1392.75,246.23 1392.75,220.23 1378.75,220.23 1378.75,246.23 1378.75,246.23" fill="#50d7ff" stroke="#514d4b" stroke-width="2" stroke-miterlimit="2.61"/><polygon points="1378.75,246.23 1392.75,246.23 1392.75,239.23 1378.75,239.23 1378.75,246.23 1378.75,246.23" fill="#50d7ff" stroke="#514d4b" stroke-width="2" stroke-miterlimit="2.61"/><polygon points="1325.75,287.23 1339.75,287.23 1339.75,261.23 1325.75,261.23 1325.75,287.23 1325.75,287.23" fill="#fdfdfd" stroke="#514d4b" stroke-width="2" stroke-miterlimit="2.61"/><polygon points="1325.75,287.23 1339.75,287.23 1339.75,280.23 1325.75,280.23 1325.75,287.23 1325.75,287.23" fill="#fdfdfd" stroke="#514d4b" stroke-width="2" stroke-miterlimit="2.61"/><polygon points="1351.75,287.23 1365.75,287.23 1365.75,261.23 1351.75,261.23 1351.75,287.23 1351.75,287.23" fill="#fdfdfd" stroke="#514d4b" stroke-width="2" stroke-miterlimit="2.61"/><polygon points="1351.75,287.23 1365.75,287.23 1365.75,280.23 1351.75,280.23 1351.75,287.23 1351.75,287.23" fill="#fdfdfd" stroke="#514d4b" stroke-width="2" stroke-miterlimit="2.61"/><polygon points="1378.75,287.23 1392.75,287.23 1392.75,261.23 1378.75,261.23 1378.75,287.23 1378.75,287.23" fill="#fdfdfd" stroke="#514d4b" stroke-width="2" stroke-miterlimit="2.61"/><polygon points="1378.75,287.23 1392.75,287.23 1392.75,280.23 1378.75,280.23 1378.75,287.23 1378.75,287.23" fill="#fdfdfd" stroke="#514d4b" stroke-width="2" stroke-miterlimit="2.61"/><polygon points="1372.72,333.23 1385.72,333.23 1385.72,314.23 1372.72,314.23 1372.72,333.23 1372.72,333.23" fill="#f7f7f7" stroke="#514d4b" stroke-width="2" stroke-miterlimit="2.61"/><polygon points="1372.72,343.23 1385.72,343.23 1385.72,331.23 1372.72,331.23 1372.72,343.23 1372.72,343.23" fill="#f7f7f7" stroke="#514d4b" stroke-width="2" stroke-miterlimit="2.61"/><polygon points="1625.75,343.23 1671.75,343.23 1671.75,226.23 1625.75,226.23 1625.75,343.23 1625.75,343.23" fill="#fdfdfd" stroke="#514d4b" stroke-width="2" stroke-miterlimit="2.61"/><polygon points="1663.51,316.23 1632.75,316.23 1632.75,314.23 1664.75,314.23 1664.75,316.23 1663.51,316.23 1663.51,316.23" fill="#514d4b"/><polygon points="1663.55,309.23 1632.75,309.23 1632.75,307.23 1664.75,307.23 1664.75,309.23 1663.55,309.23 1663.55,309.23" fill="#514d4b"/><polygon points="1663.58,301.23 1632.75,301.23 1632.75,299.23 1664.75,299.23 1664.75,301.23 1663.58,301.23 1663.58,301.23" fill="#514d4b"/><polygon points="1663.58,294.23 1632.75,294.23 1632.75,292.23 1664.75,292.23 1664.75,294.23 1663.58,294.23 1663.58,294.23" fill="#514d4b"/><polygon points="1663.61,286.23 1632.75,286.23 1632.75,284.23 1664.75,284.23 1664.75,286.23 1663.61,286.23 1663.61,286.23" fill="#fc0"/><polygon points="1663.6,279.23 1632.75,279.23 1632.75,277.23 1664.75,277.23 1664.75,279.23 1663.6,279.23 1663.6,279.23" fill="#fc0"/><polygon points="1663.6,272.23 1632.75,272.23 1632.75,270.23 1664.75,270.23 1664.75,272.23 1663.6,272.23 1663.6,272.23" fill="#514d4b"/><polygon points="1663.64,264.23 1632.75,264.23 1632.75,262.23 1664.75,262.23 1664.75,264.23 1663.64,264.23 1663.64,264.23" fill="#514d4b"/><polygon points="1663.67,257.23 1632.75,257.23 1632.75,255.23 1664.75,255.23 1664.75,257.23 1663.67,257.23 1663.67,257.23" fill="#514d4b"/><polygon points="1663.67,249.23 1632.75,249.23 1632.75,247.23 1664.75,247.23 1664.75,249.23 1663.67,249.23 1663.67,249.23" fill="#514d4b"/><polygon points="1663.71,242.23 1632.75,242.23 1632.75,240.23 1664.75,240.23 1664.75,242.23 1663.71,242.23 1663.71,242.23" fill="#fc0"/><polygon points="1700.82,279.23 1695.75,279.23 1695.75,276.23 1701.75,276.23 1701.75,279.23 1700.82,279.23 1700.82,279.23" fill="#514d4b"/><polygon points="1694.62,297.23 1689.75,297.23 1689.75,294.23 1695.75,294.23 1695.75,297.23 1694.62,297.23 1694.62,297.23" fill="#514d4b"/><polygon points="1702.61,310.23 1697.75,310.23 1697.75,307.23 1703.75,307.23 1703.75,310.23 1702.61,310.23 1702.61,310.23" fill="#514d4b"/><g><path d="M1592.05,143.94l-.41-.43c-4.455439-4.782036-5.652733-11.75013-3.049055-17.7451s8.513098-9.876543,15.049055-9.8849c4.358318-.007964,8.541004,1.717107,11.626554,4.795154s4.820799,7.256521,4.823446,11.614846v0c.000286,1.756527-.279908,3.501832-.83,5.17-.552948,1.668239-1.373672,3.235385-2.43,4.64-.584838.767549-1.219542,1.495789-1.9,2.18-3.7,3.9-7.37,7.84-11,11.75l-11.41-11.72c-.17-.15-.31-.29-.42-.4Z" fill="#fc0" stroke="#514d4b" stroke-width="2" stroke-miterlimit="2.61"/><path d="M1603.47,123.81c3.861824-.005241,7.188893,2.719764,7.94458,6.506932s-1.270742,7.580404-4.83883,9.057718-7.682831.226739-9.825434-2.986198-1.715574-7.49227,1.019684-10.218452c1.513695-1.508672,3.562863-2.3571,5.7-2.36Z" fill="#fff" stroke="#514d4b" stroke-width="2" stroke-miterlimit="2.61"/></g><polygon points="983.75,343.23 1029.75,343.23 1029.75,225.23 983.75,225.23 983.75,343.23 983.75,343.23" fill="#fdfdfd" stroke="#514d4b" stroke-width="2" stroke-miterlimit="2.61"/><polygon points="1071.75,343.23 1109.75,343.23 1109.75,230.23 1071.75,230.23 1071.75,343.23 1071.75,343.23" fill="#fdfdfd" stroke="#514d4b" stroke-width="2" stroke-miterlimit="2.61"/><polygon points="1221.75,111.23 1221.75,103.23 1180.75,103.23 1180.75,111.23 1171.75,111.23 1171.75,343.23 1230.75,343.23 1230.75,111.23 1221.75,111.23" transform="translate(0 1)" fill="#fdfdfd" stroke="#514d4b" stroke-width="2" stroke-miterlimit="2.61"/><polygon points="1081.75,343.23 1090.75,343.23 1090.75,326.23 1081.75,326.23 1081.75,343.23 1081.75,343.23" fill="#f7f7f7" stroke="#514d4b" stroke-width="2" stroke-miterlimit="2.61"/><polygon points="1100.68,237.33 1100.68,297.14 1059.75,297.14 1059.75,297.39 1059.64,297.39 1059.64,317.94 1059.75,317.94 1059.75,318.14 1100.68,318.14 1100.68,343.23 1151.87,343.23 1151.87,237.33 1100.68,237.33" fill="#fdfdfd" stroke="#514d4b" stroke-width="2" stroke-miterlimit="2.61"/><polygon points="1000.75,343.23 1012.75,343.23 1012.75,322.23 1000.75,322.23 1000.75,343.23 1000.75,343.23" fill="#f7f7f7" stroke="#514d4b" stroke-width="2" stroke-miterlimit="2.61"/><polygon points="995.24,316.23 990.75,316.23 990.75,314.23 996.75,314.23 996.75,316.23 995.24,316.23 995.24,316.23" fill="#514d4b"/><polygon points="1015.26,308.23 1005.75,308.23 1005.75,306.23 1016.75,306.23 1016.75,308.23 1015.26,308.23 1015.26,308.23" fill="#514d4b"/><polygon points="1003.38,301.23 995.75,301.23 995.75,299.23 1004.75,299.23 1004.75,301.23 1003.38,301.23 1003.38,301.23" fill="#514d4b"/><polygon points="1021.09,293.23 1010.75,293.23 1010.75,291.23 1021.75,291.23 1021.75,293.23 1021.09,293.23 1021.09,293.23" fill="#514d4b"/><polygon points="993.9,286.23 989.75,286.23 989.75,284.23 994.75,284.23 994.75,286.23 993.9,286.23 993.9,286.23" fill="#514d4b"/><polygon points="1011.77,279.23 1008.75,279.23 1008.75,277.23 1012.75,277.23 1012.75,279.23 1011.77,279.23 1011.77,279.23" fill="#514d4b"/><polygon points="1016.6,271.23 1008.75,271.23 1008.75,269.23 1017.75,269.23 1017.75,271.23 1016.6,271.23 1016.6,271.23" fill="#514d4b"/><polygon points="997.21,264.23 995.75,264.23 995.75,262.23 997.75,262.23 997.75,264.23 997.21,264.23 997.21,264.23" fill="#514d4b"/><polygon points="997.92,256.23 990.75,256.23 990.75,254.23 999.75,254.23 999.75,256.23 997.92,256.23 997.92,256.23" fill="#fc0"/><polygon points="1021.19,248.23 1012.75,248.23 1012.75,246.23 1022.75,246.23 1022.75,248.23 1021.19,248.23 1021.19,248.23" fill="#514d4b"/><polygon points="841.75,213.23 901.75,213.23 901.75,211.23 841.75,211.23 841.75,213.23 841.75,213.23" fill="#fc0"/><polygon points="841.75,211.23 901.75,211.23 901.75,209.23 841.75,209.23 841.75,211.23 841.75,211.23" fill="#fc0"/><polygon points="841.75,214.23 901.75,214.23 901.75,208.23 841.75,208.23 841.75,214.23 841.75,214.23" fill="none" stroke="#514d4b" stroke-width="2" stroke-miterlimit="2.61"/><polygon points="1309.75,203.23 1405.75,203.23 1405.75,200.23 1309.75,200.23 1309.75,203.23 1309.75,203.23" fill="#fc0"/><polygon points="1309.75,200.23 1405.75,200.23 1405.75,197.23 1309.75,197.23 1309.75,200.23 1309.75,200.23" fill="#fc0"/><polygon points="1309.75,204.23 1405.75,204.23 1405.75,196.23 1309.75,196.23 1309.75,204.23 1309.75,204.23" fill="none" stroke="#514d4b" stroke-width="2" stroke-miterlimit="2.61"/><polygon points="1620.75,225.86 1676.75,225.86 1676.75,221.23 1620.75,221.23 1620.75,225.86 1620.75,225.86" fill="#fc0"/><polygon points="1620.75,221.73 1676.75,221.73 1676.75,218.23 1620.75,218.23 1620.75,221.73 1620.75,221.73" fill="#fc0"/><polygon points="1620.75,226.23 1676.75,226.23 1676.75,217.23 1620.75,217.23 1620.75,226.23 1620.75,226.23" fill="none" stroke="#514d4b" stroke-width="2" stroke-miterlimit="2.61"/><polygon points="1309.75,302.23 1405.75,302.23 1405.75,300.23 1309.75,300.23 1309.75,302.23 1309.75,302.23" fill="#fc0"/><polygon points="1309.75,300.23 1405.75,300.23 1405.75,297.23 1309.75,297.23 1309.75,300.23 1309.75,300.23" fill="#fc0"/><polygon points="1309.75,303.23 1405.75,303.23 1405.75,296.23 1309.75,296.23 1309.75,303.23 1309.75,303.23" fill="none" stroke="#514d4b" stroke-width="2" stroke-miterlimit="2.61"/><polygon points="844.75,307.23 898.75,307.23 898.75,214.23 844.75,214.23 844.75,307.23 844.75,307.23" fill="#50d7ff" stroke="#514d4b" stroke-width="2" stroke-miterlimit="2.61"/><polygon points="844.75,343.23 898.75,343.23 898.75,313.23 844.75,313.23 844.75,343.23 844.75,343.23" fill="#fdfdfd" stroke="#514d4b" stroke-width="2" stroke-miterlimit="2.61"/><polygon points="862.75,343.23 880.75,343.23 880.75,329.23 862.75,329.23 862.75,343.23 862.75,343.23" fill="#fdfdfd" stroke="#514d4b" stroke-width="2" stroke-miterlimit="2.61"/><polygon points="740.75,343.23 820.75,343.23 820.75,120.23 740.75,120.23 740.75,343.23 740.75,343.23" fill="#fdfdfd" stroke="#514d4b" stroke-width="2" stroke-miterlimit="2.61"/><polygon points="566.75,343.23 612.75,343.23 612.75,212.23 566.75,212.23 566.75,343.23 566.75,343.23" transform="translate(.76 0)" fill="#fdfdfd" stroke="#514d4b" stroke-width="2" stroke-miterlimit="2.61"/><polygon points="531.75,343.23 553.75,343.23 553.75,268.23 531.75,268.23 531.75,343.23 531.75,343.23" fill="#fdfdfd" stroke="#514d4b" stroke-width="2" stroke-miterlimit="2.61"/><polygon points="539.27,343.12 546.75,343.12 546.75,331.23 539.27,331.23 539.27,343.12 539.27,343.12" fill="#50d7ff" stroke="#514d4b" stroke-width="2" stroke-miterlimit="2.61"/><polygon points="583.27,343.12 597.75,343.12 597.75,320.23 583.27,320.23 583.27,343.12 583.27,343.12" fill="none" stroke="#514d4b" stroke-width="2" stroke-miterlimit="2.61"/><polygon points="578.75,253.23 586.75,253.23 586.75,245.23 578.75,245.23 578.75,253.23 578.75,253.23" fill="none" stroke="#514d4b" stroke-width="2" stroke-miterlimit="2.61"/><polygon points="578.75,239.23 586.75,239.23 586.75,231.23 578.75,231.23 578.75,239.23 578.75,239.23" fill="none" stroke="#514d4b" stroke-width="2" stroke-miterlimit="2.61"/><polygon points="593.75,253.23 601.75,253.23 601.75,245.23 593.75,245.23 593.75,253.23 593.75,253.23" fill="none" stroke="#50d7ff" stroke-width="2" stroke-miterlimit="2.61"/><polygon points="593.75,239.23 601.75,239.23 601.75,231.23 593.75,231.23 593.75,239.23 593.75,239.23" fill="none" stroke-width="2" stroke-miterlimit="2.61"/><polygon points="547.84,279.23 542.75,279.23 542.75,276.23 548.75,276.23 548.75,279.23 547.84,279.23 547.84,279.23" fill="#514d4b"/><polygon points="541.63,297.23 536.75,297.23 536.75,294.23 542.75,294.23 542.75,297.23 541.63,297.23 541.63,297.23" fill="#514d4b"/><polygon points="549.62,310.23 544.75,310.23 544.75,307.23 550.75,307.23 550.75,310.23 549.62,310.23 549.62,310.23" fill="#514d4b"/><polygon points="795.75,297.23 776.75,297.23 776.75,295.23 797.75,295.23 797.75,297.23 795.75,297.23 795.75,297.23" fill="#514d4b"/><polygon points="774.23,289.23 759.75,289.23 759.75,287.23 775.75,287.23 775.75,289.23 774.23,289.23 774.23,289.23" fill="#514d4b"/><polygon points="806.31,282.23 788.75,282.23 788.75,280.23 808.75,280.23 808.75,282.23 806.31,282.23 806.31,282.23"/><polygon points="757.07,274.23 750.75,274.23 750.75,272.23 759.75,272.23 759.75,274.23 757.07,274.23 757.07,274.23" fill="#514d4b"/><polygon points="789.43,267.23 783.75,267.23 783.75,265.23 791.75,265.23 791.75,267.23 789.43,267.23 789.43,267.23" fill="#514d4b"/><polygon points="798.18,259.23 784.75,259.23 784.75,257.23 799.75,257.23 799.75,259.23 798.18,259.23 798.18,259.23" fill="#514d4b"/><polygon points="763.06,252.23 760.75,252.23 760.75,250.23 764.75,250.23 764.75,252.23 763.06,252.23 763.06,252.23" fill="#514d4b"/><polygon points="764.36,244.23 750.75,244.23 750.75,242.23 766.75,242.23 766.75,244.23 764.36,244.23 764.36,244.23" fill="#514d4b"/><polygon points="806.48,237.23 790.75,237.23 790.75,235.23 808.75,235.23 808.75,237.23 806.48,237.23 806.48,237.23" fill="#514d4b"/><polygon points="758.21,229.23 750.75,229.23 750.75,227.23 759.75,227.23 759.75,229.23 758.21,229.23 758.21,229.23" fill="#514d4b"/><path d="M764.4,318.38h36.28v25.5h-37.44v-25.5Zm34,2.34h-32.83v20.83h32.78v-20.83Z" fill="#514d4b"/><polygon points="291.75,343.23 332.75,343.23 332.75,165.23 291.75,165.23 291.75,343.23 291.75,343.23" fill="#fdfdfd" stroke="#514d4b" stroke-width="2" stroke-miterlimit="2.61"/><polygon points="346.75,343.23 416.75,343.23 416.75,306.23 346.75,306.23 346.75,343.23 346.75,343.23" fill="#00b4ff" stroke="#514d4b" stroke-width="2" stroke-miterlimit="2.61"/><polygon points="346.75,343.23 416.75,343.23 416.75,335.23 346.75,335.23 346.75,343.23 346.75,343.23" fill="#fdfdfd" stroke="#514d4b" stroke-width="2" stroke-miterlimit="2.61"/><path d="M439.25,337.23c-.523924.003251-1.046324.05683-1.56.16.040195-.385357.060222-.772552.06-1.16c0-6.627417-5.372583-12-12-12s-12,5.372583-12,12v.08c-3.440927.496653-5.995925,3.443418-6,6.92h38.85c-.716421-3.490369-3.786866-5.996854-7.35-6Z" fill="#fdfdfd" stroke="#514d4b" stroke-width="2" stroke-miterlimit="2.61"/><path d="M587.41,337.23c-.523924.003251-1.046324.05683-1.56.16.040195-.385357.060222-.772552.06-1.16c0-6.627417-5.372583-12-12-12s-12,5.372583-12,12v.08c-3.440927.496653-5.995925,3.443418-6,6.92h38.84c-.71215-3.488818-3.779243-5.995979-7.34-6Z" fill="#fc0" stroke="#514d4b" stroke-width="2" stroke-miterlimit="2.61"/><path d="M1048.14,337.23c-.523924.003251-1.046324.05683-1.56.16.040195-.385357.060222-.772552.06-1.16c0-6.627417-5.372583-12-12-12s-12,5.372583-12,12v.08c-3.440927.496653-5.995925,3.443418-6,6.92h38.85c-.712903-3.492497-3.785485-6.000728-7.35-6Z" fill="#50d7ff" stroke="#514d4b" stroke-width="2" stroke-miterlimit="2.61"/><path d="M1553.16,337.23c-.523924.003251-1.046324.05683-1.56.16.040195-.385357.060222-.772552.06-1.16c0-6.627417-5.372583-12-12-12s-12,5.372583-12,12v.08c-3.440927.496653-5.995925,3.443418-6,6.92h38.85c-.712903-3.492497-3.785485-6.000728-7.35-6Z" fill="#fdfdfd" stroke="#514d4b" stroke-width="2" stroke-miterlimit="2.61"/><polygon points="305.75,343.23 318.75,343.23 318.75,317.23 305.75,317.23 305.75,343.23 305.75,343.23" fill="#00b4ff" stroke="#514d4b" stroke-width="2" stroke-miterlimit="2.61"/><polygon points="303.2,264.23 299.75,264.23 299.75,262.23 303.75,262.23 303.75,264.23 303.2,264.23 303.2,264.23" fill="#514d4b"/><polygon points="310.75,223.23 303.75,223.23 303.75,221.23 311.75,221.23 311.75,223.23 310.75,223.23 310.75,223.23" fill="#514d4b"/><polygon points="310.03,249.23 304.75,249.23 304.75,247.23 310.75,247.23 310.75,249.23 310.03,249.23 310.03,249.23" fill="#fc0"/><polygon points="325.82,242.23 318.75,242.23 318.75,240.23 326.75,240.23 326.75,242.23 325.82,242.23 325.82,242.23" fill="#514d4b"/><polygon points="304.5,234.23 301.75,234.23 301.75,232.23 304.75,232.23 304.75,234.23 304.5,234.23 304.5,234.23" fill="#00b4ff"/><polygon points="320.43,219.23 315.75,219.23 315.75,217.23 321.75,217.23 321.75,219.23 320.43,219.23 320.43,219.23" fill="#514d4b"/><polygon points="326.35,204.23 320.75,204.23 320.75,202.23 326.75,202.23 326.75,204.23 326.35,204.23 326.35,204.23" fill="#514d4b"/><polygon points="327.01,197.23 320.75,197.23 320.75,195.23 327.75,195.23 327.75,197.23 327.01,197.23 327.01,197.23" fill="#00b4ff"/><polygon points="326.2,189.23 322.75,189.23 322.75,187.23 326.75,187.23 326.75,189.23 326.2,189.23 326.2,189.23" fill="#514d4b"/><polygon points="324.06,291.23 318.75,291.23 318.75,289.23 324.75,289.23 324.75,291.23 324.06,291.23 324.06,291.23" fill="#00b4ff"/><polygon points="310.95,276.23 305.75,276.23 305.75,274.23 311.75,274.23 311.75,276.23 310.95,276.23 310.95,276.23" fill="#514d4b"/><polygon points="322.7,262.23 315.75,262.23 315.75,260.23 323.75,260.23 323.75,262.23 322.7,262.23 322.7,262.23" fill="#514d4b"/><polygon points="308.08,285.23 300.75,285.23 300.75,283.23 308.75,283.23 308.75,285.23 308.08,285.23 308.08,285.23" fill="#514d4b"/><g><path d="M192.75,132.17c1.649139-.000408,3.261016.490466,4.63,1.41c2.444328-5.287851,8.18602-8.220331,13.90288-7.10068s9.928126,6.001423,10.19712,11.82068h-36.73c.975831-3.615841,4.254796-6.128348,8-6.13Z" fill="#fdfdfd" stroke="#514d4b" stroke-width="2" stroke-miterlimit="2.61"/></g><g><path d="M809.75,96.11c1.648905-.008876,3.262276.478968,4.63,1.4c2.461515-5.254585,8.184514-8.158317,13.87863-7.041731s9.896634,5.96666,10.19137,11.761731h-36.7c.979604-3.611874,4.25764-6.119571,8-6.12Z" fill="#fdfdfd" stroke="#514d4b" stroke-width="2" stroke-miterlimit="2.61"/></g><g><path d="M1306.75,126.11c1.648905-.008876,3.262276.478968,4.63,1.4c2.444328-5.287851,8.18602-8.220331,13.90288-7.10068s9.928126,6.001423,10.19712,11.82068h-36.73c.979604-3.611874,4.25764-6.119571,8-6.12Z" fill="#fdfdfd" stroke="#514d4b" stroke-width="2" stroke-miterlimit="2.61"/></g><g><path d="M604.62,95.39c2.648863.001419,5.237885.787869,7.44,2.26c3.921612-8.493231,13.14174-13.20439,22.322106-11.405807s15.941111,9.640655,16.367894,18.985807h-59c1.585105-5.803643,6.853791-9.831916,12.87-9.84Z" fill="#00b4ff"/></g><polygon points="765.57,320.91 798.35,320.91 798.35,341.74 765.57,341.74 765.57,320.91 765.57,320.91" fill="#00b4ff" stroke-width="0.18" stroke-miterlimit="2.61"/><polygon points="783.32,321.52 783.32,343.96 780.86,343.96 780.86,318.88 783.32,318.88 783.32,321.52 783.32,321.52" fill="#514d4b"/><line x1="0" y1="343.23" x2="133.75" y2="343.23" fill="none" stroke="#514d4b" stroke-width="2" stroke-miterlimit="2.61"/><line x1="138.75" y1="343.23" x2="154.75" y2="343.23" fill="none" stroke="#514d4b" stroke-width="2" stroke-miterlimit="2.61"/><line x1="157.75" y1="343.23" x2="235.75" y2="343.23" fill="none" stroke="#514d4b" stroke-width="2" stroke-miterlimit="2.61"/><line x1="245.75" y1="343.23" x2="638.75" y2="343.23" fill="none" stroke="#514d4b" stroke-width="2" stroke-miterlimit="2.61"/><line x1="654.75" y1="343.23" x2="911.75" y2="343.23" fill="none" stroke="#514d4b" stroke-width="2" stroke-miterlimit="2.61"/><line x1="917.75" y1="343.23" x2="926.75" y2="343.23" fill="none" stroke="#514d4b" stroke-width="2" stroke-miterlimit="2.61"/><line x1="932.75" y1="343.23" x2="1254.75" y2="343.23" fill="none" stroke="#514d4b" stroke-width="2" stroke-miterlimit="2.61"/><line x1="1263.75" y1="343.23" x2="1274.75" y2="343.23" fill="none" stroke="#514d4b" stroke-width="2" stroke-miterlimit="2.61"/><line x1="1314.75" y1="343.23" x2="1470.75" y2="343.23" fill="none" stroke="#514d4b" stroke-width="2" stroke-miterlimit="2.61"/><line x1="1475.75" y1="343.23" x2="1720.75" y2="343.23" fill="none" stroke="#514d4b" stroke-width="2" stroke-miterlimit="2.61"/><line x1="1728.75" y1="343.23" x2="1895.08" y2="343.23" fill="none" stroke="#514d4b" stroke-width="2" stroke-miterlimit="2.61"/><circle r="22" transform="translate(665.75 292.23)" fill="#f7f7f7"/><path d="M675.75,272.63c2.579556,3.317867,3.986279,7.397363,4,11.6c0,11-9.63,20-21.5,20-4.657822.011594-9.202888-1.432338-13-4.13c3.504592,9.17904,12.670867,14.921454,22.459233,14.070077s17.82556-8.090123,19.692754-17.736393-2.888325-19.361256-11.651987-23.803684Z" fill="#50d7ff"/><circle r="22" transform="translate(665.75 292.23)" fill="none" stroke="#514d4b" stroke-width="2" stroke-miterlimit="2.61"/><line x1="665.75" y1="293.23" x2="669.25" y2="289.73" fill="none" stroke="#514d4b" stroke-width="2" stroke-miterlimit="2.61"/><line x1="665.75" y1="301.23" x2="660.75" y2="296.23" fill="none" stroke="#514d4b" stroke-width="2" stroke-miterlimit="2.61"/><line x1="665.75" y1="343.23" x2="665.75" y2="288.23" fill="none" stroke="#514d4b" stroke-width="2" stroke-miterlimit="2.61"/><circle r="22" transform="translate(1268.75 292.23)" fill="#f7f7f7"/><path d="M1279,272.63c2.579556,3.317867,3.986279,7.397363,4,11.6c0,11-9.63,20-21.5,20-4.657104.006934-9.200784-1.436558-13-4.13c3.504592,9.17904,12.670867,14.921454,22.459233,14.070077s17.82556-8.090123,19.692754-17.736393-2.888325-19.361256-11.651987-23.803684Z" fill="#50d7ff"/><circle r="22" transform="translate(1268.75 292.23)" fill="none" stroke="#514d4b" stroke-width="2" stroke-miterlimit="2.61"/><line x1="1269.01" y1="293.23" x2="1272.51" y2="289.73" fill="none" stroke="#514d4b" stroke-width="2" stroke-miterlimit="2.61"/><line x1="1269.01" y1="301.23" x2="1264.01" y2="296.23" fill="none" stroke="#514d4b" stroke-width="2" stroke-miterlimit="2.61"/><line x1="1268.75" y1="343.23" x2="1268.75" y2="288.23" fill="none" stroke="#514d4b" stroke-width="2" stroke-miterlimit="2.61"/><rect width="21.46" height="45.28" rx="10.73" ry="10.73" transform="translate(482.43 273.57)" fill="#fc0"/><path d="M500,276v26.62c-.012867,4.033651-2.288901,7.718637-5.889947,9.536046s-7.917456,1.45956-11.170053-.926046c1.542979,5.098987,6.593385,8.293766,11.861776,7.503507s9.159186-5.326218,9.138224-10.653507v-23.79c-.002662-3.214594-1.449103-6.257993-3.94-8.29Z" fill="#fc0"/><rect width="22" height="46" rx="10.73" ry="10.73" transform="translate(481.9 272.44)" fill="none" stroke="#514d4b" stroke-width="2" stroke-miterlimit="2.61"/><line x1="493.16" y1="294.89" x2="497.03" y2="291.02" fill="none" stroke="#514d4b" stroke-width="2" stroke-miterlimit="2.61"/><line x1="493.16" y1="303.05" x2="487.29" y2="297.18" fill="none" stroke="#514d4b" stroke-width="2" stroke-miterlimit="2.61"/><line x1="492.9" y1="343.44" x2="492.9" y2="288.44" fill="none" stroke="#514d4b" stroke-width="2" stroke-miterlimit="2.61"/><path d="M1556.25,273.23v0c5.79899,0,10.5,4.70101,10.5,10.5v24c0,5.79899-4.70101,10.5-10.5,10.5v0c-5.79899,0-10.5-4.70101-10.5-10.5v-24c0-5.79899,4.70101-10.5,10.5-10.5Z" fill="#fc0"/><path d="M1562.75,275.57v27.09c.041054,4.141682-2.264588,7.950097-5.953391,9.833696s-8.125744,1.518122-11.456609-.943696c.861718,2.787586,2.795632,5.118613,5.376206,6.480166s5.596369,1.642073,8.383794.779834l.24-.08c4.492044-1.514181,7.48857-5.760271,7.41-10.5v-24.23c-.016439-3.26432-1.481873-6.35272-4-8.43Z" fill="#fc0"/><rect width="22" height="46" rx="10.73" ry="10.73" transform="translate(1544.75 272.23)" fill="none" stroke="#514d4b" stroke-width="2" stroke-miterlimit="2.61"/><line x1="1556.16" y1="294.89" x2="1560.03" y2="291.02" fill="none" stroke="#514d4b" stroke-width="2" stroke-miterlimit="2.61"/><line x1="1556.16" y1="303.05" x2="1550.29" y2="297.18" fill="none" stroke="#514d4b" stroke-width="2" stroke-miterlimit="2.61"/><line x1="1555.75" y1="343.23" x2="1555.75" y2="288.23" fill="none" stroke="#514d4b" stroke-width="2" stroke-miterlimit="2.61"/><path d="M229.92,273.57v0c2.845773,0,5.57499,1.130479,7.587256,3.142744s3.142744,4.741483,3.142744,7.587256v23.82c.002657,2.846587-1.126969,5.577348-3.139811,7.590189s-4.743602,3.142468-7.590189,3.139811v0c-2.846587.002657-5.577348-1.126969-7.590189-3.139811s-3.142468-4.743602-3.139811-7.590189v-23.82c0-2.845773,1.130479-5.57499,3.142744-7.587256s4.741483-3.142744,7.587256-3.142744Z" fill="#fc0"/><path d="M236.75,276v26.62c-.004583,4.044331-2.284905,7.741841-5.896756,9.561504s-7.940368,1.451708-11.193244-.951504c1.542979,5.098987,6.593385,8.293766,11.861776,7.503507s9.159186-5.326218,9.138224-10.653507v-23.79c.007546-3.210251-1.428018-6.253941-3.91-8.29Z" fill="#fc0"/><rect width="22" height="46" rx="10.73" ry="10.73" transform="translate(218.65 272.44)" fill="none" stroke="#514d4b" stroke-width="2" stroke-miterlimit="2.61"/><line x1="229.91" y1="294.89" x2="233.78" y2="291.02" fill="none" stroke="#514d4b" stroke-width="2" stroke-miterlimit="2.61"/><line x1="229.91" y1="303.05" x2="224.04" y2="297.18" fill="none" stroke="#514d4b" stroke-width="2" stroke-miterlimit="2.61"/><line x1="229.65" y1="343.44" x2="229.65" y2="288.44" fill="none" stroke="#514d4b" stroke-width="2" stroke-miterlimit="2.61"/><rect width="30" height="62" rx="14.84" ry="14.84" transform="translate(249.75 234.23)" fill="#f7f7f7"/><path d="M273.89,236.23v37.1c.099929,6.961448-4.646782,13.059018-11.42,14.67-4.045679.872751-8.268527-.147065-11.47-2.77c2.06,7.24,8.91,12.23,16.56,10.68c6.850717-1.535964,11.689701-7.659782,11.6-14.68v-35c-.01-4.84-2.06-7.15-5.27-10Z" fill="#00b4ff"/><rect width="30" height="62" rx="14.04" ry="14.04" transform="translate(249.75 234.23)" fill="none" stroke="#514d4b" stroke-width="2" stroke-miterlimit="2.61"/><line x1="264.78" y1="268.76" x2="270.73" y2="262.81" fill="none" stroke="#514d4b" stroke-width="2" stroke-miterlimit="2.61"/><line x1="264.78" y1="281.31" x2="255.75" y2="272.29" fill="none" stroke="#514d4b" stroke-width="2" stroke-miterlimit="2.61"/><line x1="264.75" y1="343.23" x2="264.75" y2="259.23" fill="none" stroke="#514d4b" stroke-width="2" stroke-miterlimit="2.61"/><rect width="30" height="62" rx="14.84" ry="14.84" transform="translate(937.75 234.23)" fill="#f7f7f7"/><path d="M961.89,236.23v37.1c.099929,6.961448-4.646782,13.059018-11.42,14.67-4.045679.872751-8.268527-.147065-11.47-2.77c2.06,7.24,8.91,12.23,16.56,10.68c6.850717-1.535964,11.689701-7.659782,11.6-14.68v-35c-.01-4.84-2.06-7.15-5.27-10Z" fill="#50d7ff"/><rect width="30" height="62" rx="14.04" ry="14.04" transform="translate(937.75 234.23)" fill="none" stroke="#514d4b" stroke-width="2" stroke-miterlimit="2.61"/><line x1="952.78" y1="268.76" x2="958.73" y2="262.81" fill="none" stroke="#514d4b" stroke-width="2" stroke-miterlimit="2.61"/><line x1="952.78" y1="281.31" x2="943.75" y2="272.29" fill="none" stroke="#514d4b" stroke-width="2" stroke-miterlimit="2.61"/><line x1="952.75" y1="343.23" x2="952.75" y2="259.23" fill="none" stroke="#514d4b" stroke-width="2" stroke-miterlimit="2.61"/><rect width="30" height="62" rx="14.84" ry="14.84" transform="translate(1585.83 234.23)" fill="#f7f7f7"/><path d="M1610,236.23v37.1c.096735,6.970351-4.664845,13.070995-11.45,14.67-4.036648.899531-8.26317-.09083-11.48-2.69c2.07,7.24,8.91,12.23,16.57,10.68c6.861611-1.543083,11.699801-7.687877,11.59-14.72v-35c0-4.88-2.05-7.19-5.23-10.04Z" fill="#50d7ff"/><rect width="30" height="62" rx="14.04" ry="14.04" transform="translate(1585.83 234.23)" fill="none" stroke="#514d4b" stroke-width="2" stroke-miterlimit="2.61"/><line x1="1600.86" y1="268.76" x2="1606.81" y2="262.81" fill="none" stroke="#514d4b" stroke-width="2" stroke-miterlimit="2.61"/><line x1="1600.86" y1="281.31" x2="1591.83" y2="272.29" fill="none" stroke="#514d4b" stroke-width="2" stroke-miterlimit="2.61"/><line x1="1600.83" y1="343.23" x2="1600.83" y2="259.23" fill="none" stroke="#514d4b" stroke-width="2" stroke-miterlimit="2.61"/><polygon points="373.75,343.23 388.75,343.23 388.75,316.23 373.75,316.23 373.75,343.23 373.75,343.23" fill="#fdfdfd" stroke="#514d4b" stroke-width="2" stroke-miterlimit="2.61"/><polygon points="386.75,243.23 398.75,243.23 398.75,231.23 386.75,231.23 386.75,243.23 386.75,243.23" fill="#00b4ff" stroke="#514d4b" stroke-width="2" stroke-miterlimit="2.61"/><polygon points="363.75,263.23 375.75,263.23 375.75,251.23 363.75,251.23 363.75,263.23 363.75,263.23" fill="#fdfdfd" stroke="#514d4b" stroke-width="2" stroke-miterlimit="2.61"/><polygon points="386.75,263.23 398.75,263.23 398.75,251.23 386.75,251.23 386.75,263.23 386.75,263.23" fill="#fdfdfd" stroke="#fc0" stroke-width="2" stroke-miterlimit="2.61"/><polygon points="363.75,283.23 375.75,283.23 375.75,271.23 363.75,271.23 363.75,283.23 363.75,283.23" fill="#fdfdfd" stroke="#514d4b" stroke-width="2" stroke-miterlimit="2.61"/><polygon points="386.75,283.23 398.75,283.23 398.75,271.23 386.75,271.23 386.75,283.23 386.75,283.23" fill="#fdfdfd" stroke="#514d4b" stroke-width="2" stroke-miterlimit="2.61"/><polygon points="375.75,207.23 387.75,207.23 387.75,213.23 375.75,213.23 375.75,207.23 375.75,207.23" fill="none" stroke="#514d4b" stroke-width="2" stroke-miterlimit="2.61"/><rect width="30" height="30" rx="4" ry="4" transform="translate(366.75 177.23)" fill="#00b4ff" stroke="#514d4b" stroke-width="2" stroke-miterlimit="2.61"/><line x1="531.75" y1="387.23" x2="503.75" y2="387.23" fill="none" stroke="#514d4b" stroke-width="2" stroke-miterlimit="10"/><line x1="499.75" y1="387.23" x2="488.75" y2="387.23" fill="none" stroke="#514d4b" stroke-width="2" stroke-miterlimit="10"/><line x1="448.75" y1="388.23" x2="435.75" y2="388.23" fill="none" stroke="#514d4b" stroke-width="2" stroke-miterlimit="10"/><line x1="430.75" y1="388.23" x2="407.75" y2="388.23" fill="none" stroke="#514d4b" stroke-width="2" stroke-miterlimit="10"/><polygon points="519.25,351.73 556.25,355.73 563.25,369.73 550.25,378.4 519.25,378.4 519.25,351.73" fill="none" stroke="#514d4b" stroke-width="2" stroke-miterlimit="10"/><polygon points="468.75,351.23 468.75,378.4 518.75,378.4 518.75,351.73 468.75,351.23" transform="translate(0-1.17)" fill="#00b4ff"/><polygon points="468.75,335.23 468.75,351.23 518.75,351.23 505.75,335.23 468.75,335.23" fill="#fdfdfd"/><polygon points="468.25,334.73 468.25,378.4 519.25,378.4 519.25,351.73 505.25,334.73 468.25,334.73" fill="none" stroke="#514d4b" stroke-width="2" stroke-miterlimit="10"/><polygon points="467.75,335.23 467.75,351.23 444.75,351.23 455.75,335.23 467.75,335.23" fill="#f7f7f7"/><polygon points="468.25,334.73 468.25,378.4 423.25,378.4 418.25,373.73 423.25,353.73 444.25,352.73 456.25,334.73 468.25,334.73" fill="none" stroke="#514d4b" stroke-width="2" stroke-miterlimit="10"/><line x1="519.25" y1="351.73" x2="445.25" y2="350.73" fill="none" stroke="#514d4b" stroke-width="2" stroke-miterlimit="10"/><rect width="15" height="6" rx="0" ry="0" transform="translate(417.25 369.73)" fill="#fdfdfd" stroke="#514d4b" stroke-width="2" stroke-miterlimit="10"/><polygon points="548.25,374.73 564.25,374.73 564.25,368.73 547.25,368.73 548.25,374.73" fill="#fc0" stroke="#514d4b" stroke-width="2" stroke-miterlimit="10"/><polyline points="557.25,358.73 553.25,358.73 551.25,364.73 560.25,364.73" fill="none" stroke="#514d4b" stroke-width="2" stroke-miterlimit="10"/><circle r="10.5" transform="translate(448.25 377.73)" fill="#00b4ff" stroke="#514d4b" stroke-width="2" stroke-miterlimit="10"/><circle r="5.5" transform="translate(448.25 377.73)" fill="none" stroke="#514d4b" stroke-width="2" stroke-miterlimit="10"/><circle r="10.5" transform="translate(532.25 376.73)" fill="#fdfdfd" stroke="#514d4b" stroke-width="2" stroke-miterlimit="10"/><circle r="5.73" transform="translate(532.25 376.73)" fill="none" stroke="#514d4b" stroke-width="2" stroke-miterlimit="10"/><ellipse rx="4.5" ry="2.5" transform="translate(460.25 341.73)" fill="#fdfdfd" stroke="#514d4b" stroke-width="2" stroke-miterlimit="10"/><polyline points="422.75,358.23 425.75,358.23 424.75,366.23 420.75,366.23" fill="none" stroke="#514d4b" stroke-width="2" stroke-miterlimit="10"/><path d="M475.75,356.23h4c1.656854,0,3,1.343146,3,3h-10c0-1.656854,1.343146-3,3-3Z" fill="#514d4b"/><line x1="1358.75" y1="387.23" x2="1343.75" y2="387.23" fill="none" stroke="#514d4b" stroke-width="2" stroke-miterlimit="10"/><line x1="1338.75" y1="387.23" x2="1332.75" y2="387.23" fill="none" stroke="#514d4b" stroke-width="2" stroke-miterlimit="10"/><line x1="1275.75" y1="388.23" x2="1245.75" y2="388.23" fill="none" stroke="#514d4b" stroke-width="2" stroke-miterlimit="10"/><polygon points="1332.75,335.23 1345.75,351.23 1271.75,351.23 1282.75,335.23 1332.75,335.23" fill="#f7f7f7"/><polygon points="1346.25,351.73 1383.25,355.73 1390.25,369.73 1377.25,378.4 1346.25,378.4 1346.25,351.73" fill="none" stroke="#514d4b" stroke-width="2" stroke-miterlimit="10"/><polygon points="1295.75,351.23 1295.75,378.4 1345.75,378.4 1345.75,351.73 1295.75,351.23" fill="#00b4ff"/><polygon points="1295.25,334.73 1295.25,378.4 1346.25,378.4 1346.25,351.73 1332.25,334.73 1295.25,334.73" fill="none" stroke="#514d4b" stroke-width="2" stroke-miterlimit="10"/><polygon points="1295.25,334.73 1295.25,378.4 1250.25,378.4 1245.25,373.73 1250.25,353.73 1271.25,352.73 1283.25,334.73 1295.25,334.73" fill="none" stroke="#514d4b" stroke-width="2" stroke-miterlimit="10"/><line x1="1346.25" y1="351.73" x2="1272.25" y2="350.73" fill="none" stroke="#514d4b" stroke-width="2" stroke-miterlimit="10"/><rect width="15" height="6" rx="0" ry="0" transform="translate(1244.25 369.73)" fill="#fdfdfd" stroke="#514d4b" stroke-width="2" stroke-miterlimit="10"/><polygon points="1375.25,374.73 1391.25,374.73 1391.25,368.73 1374.25,368.73 1375.25,374.73" fill="#fdfdfd" stroke="#514d4b" stroke-width="2" stroke-miterlimit="10"/><polyline points="1384.25,358.73 1380.25,358.73 1378.25,364.73 1387.25,364.73" fill="none" stroke="#514d4b" stroke-width="2" stroke-miterlimit="10"/><circle r="10.5" transform="translate(1275.25 377.73)" fill="#fdfdfd" stroke="#514d4b" stroke-width="2" stroke-miterlimit="10"/><circle r="5.5" transform="translate(1275.25 377.73)" fill="none" stroke="#514d4b" stroke-width="2" stroke-miterlimit="10"/><circle r="10.5" transform="translate(1359.25 376.73)" fill="#fdfdfd" stroke="#514d4b" stroke-width="2" stroke-miterlimit="10"/><circle r="5.73" transform="translate(1359.25 376.73)" fill="#fc0" stroke="#514d4b" stroke-width="2" stroke-miterlimit="10"/><ellipse rx="4.5" ry="2.5" transform="translate(1287.25 341.73)" fill="#fc0" stroke="#514d4b" stroke-width="2" stroke-miterlimit="10"/><polyline points="1249.75,358.23 1252.75,358.23 1251.75,366.23 1247.75,366.23" fill="none" stroke="#514d4b" stroke-width="2" stroke-miterlimit="10"/><path d="M1302.75,356.23h4c1.656854,0,3,1.343146,3,3h-10c0-1.656854,1.343146-3,3-3Z" fill="#514d4b"/><rect width="9" height="19" rx="0" ry="0" transform="translate(445.75 209.23)" fill="#fdfdfd"/><rect width="9" height="19" rx="0" ry="0" transform="translate(459.75 209.23)" fill="#fdfdfd"/><rect width="9" height="19" rx="0" ry="0" transform="translate(473.75 209.23)" fill="#fdfdfd"/><rect width="9" height="19" rx="0" ry="0" transform="translate(445.75 237.23)" fill="#fdfdfd"/><rect width="9" height="19" rx="0" ry="0" transform="translate(459.75 237.23)" fill="#fdfdfd"/><rect width="9" height="19" rx="0" ry="0" transform="translate(473.75 237.23)" fill="#fdfdfd"/><rect width="8" height="10" rx="0" ry="0" transform="translate(661.75 196.23)" fill="#fdfdfd"/><rect width="8" height="10" rx="0" ry="0" transform="translate(675.75 196.23)" fill="#fdfdfd"/><rect width="8" height="10" rx="0" ry="0" transform="translate(689.75 196.23)" fill="#fdfdfd"/><rect width="8" height="10" rx="0" ry="0" transform="translate(661.75 210.23)" fill="#fdfdfd"/><rect width="8" height="10" rx="0" ry="0" transform="translate(675.75 210.23)" fill="#fdfdfd"/><rect width="8" height="10" rx="0" ry="0" transform="translate(689.75 210.23)" fill="#fdfdfd"/><rect width="8" height="10" rx="0" ry="0" transform="translate(661.75 224.23)" fill="#fdfdfd"/><rect width="8" height="10" rx="0" ry="0" transform="translate(675.75 224.23)" fill="#fdfdfd"/><rect width="8" height="10" rx="0" ry="0" transform="translate(689.75 224.23)" fill="#fdfdfd"/><rect width="8" height="10" rx="0" ry="0" transform="translate(661.75 238.23)" fill="#fdfdfd"/><rect width="8" height="10" rx="0" ry="0" transform="translate(675.75 238.23)" fill="#fdfdfd"/><rect width="8" height="10" rx="0" ry="0" transform="translate(689.75 238.23)" fill="#fdfdfd"/><rect width="6" height="20" rx="0" ry="0" transform="translate(777.65 137.23)" fill="#50d7ff"/><rect width="20" height="6" rx="0" ry="0" transform="translate(770.65 144.23)" fill="#50d7ff"/><rect width="9" height="23" rx="0" ry="0" transform="translate(752.75 170.23)" fill="#50d7ff" stroke="#514d4b" stroke-width="2.35" stroke-miterlimit="2.61"/><rect width="9" height="23" rx="0" ry="0" transform="translate(767.75 170.23)" fill="#50d7ff" stroke="#514d4b" stroke-width="2.35" stroke-miterlimit="2.61"/><rect width="9" height="23" rx="0" ry="0" transform="translate(782.75 170.23)" fill="#fdfdfd" stroke="#fc0" stroke-width="2.35" stroke-miterlimit="2.61"/><rect width="9" height="23" rx="0" ry="0" transform="translate(797.75 170.23)" fill="none" stroke-width="2.35" stroke-miterlimit="2.61"/><rect width="9" height="9" rx="0" ry="0" transform="translate(752.75 202.23)" fill="none" stroke-width="2.35" stroke-miterlimit="2.61"/><rect width="9" height="9" rx="0" ry="0" transform="translate(767.75 202.23)" fill="#fdfdfd" stroke="#50d7ff" stroke-width="2.35" stroke-miterlimit="2.61"/><rect width="9" height="9" rx="0" ry="0" transform="translate(782.75 202.23)" fill="#50d7ff" stroke="#514d4b" stroke-width="2.35" stroke-miterlimit="2.61"/><rect width="9" height="9" rx="0" ry="0" transform="translate(797.75 202.23)" fill="#50d7ff" stroke="#514d4b" stroke-width="2.35" stroke-miterlimit="2.61"/><polygon points="841.75,312.23 901.75,312.23 901.75,310.23 841.75,310.23 841.75,312.23 841.75,312.23" fill="#fc0"/><polygon points="841.75,310.23 901.75,310.23 901.75,308.23 841.75,308.23 841.75,310.23 841.75,310.23" fill="#fc0"/><polygon points="841.75,313.23 901.75,313.23 901.75,307.23 841.75,307.23 841.75,313.23 841.75,313.23" fill="none" stroke="#514d4b" stroke-width="2" stroke-miterlimit="2.61"/><line x1="858.25" y1="306.25" x2="858.25" y2="214.25" fill="none" stroke="#514d4b" stroke-width="2" stroke-miterlimit="2.61"/><line x1="871.75" y1="306.25" x2="871.75" y2="214.25" fill="none" stroke="#514d4b" stroke-width="2" stroke-miterlimit="2.61"/><line x1="885.25" y1="306.25" x2="885.25" y2="214.25" fill="none" stroke="#514d4b" stroke-width="2" stroke-miterlimit="2.61"/><line x1="844.75" y1="237.48" x2="898.75" y2="237.48" fill="none" stroke="#514d4b" stroke-width="2" stroke-miterlimit="2.61"/><line x1="844.75" y1="260.73" x2="898.75" y2="260.73" fill="none" stroke="#514d4b" stroke-width="2" stroke-miterlimit="2.61"/><line x1="844.75" y1="283.98" x2="898.75" y2="283.98" fill="none" stroke="#514d4b" stroke-width="2" stroke-miterlimit="2.61"/><polygon points="1112.8,333.23 1141.8,333.23 1141.8,248.23 1112.8,248.23 1112.8,333.23 1112.8,333.23" fill="#50d7ff"/><polygon points="1112.8,286.38 1141.8,267.23 1141.8,262.23 1112.8,281.38 1112.8,286.38" fill="#f7f7f7"/><polygon points="1112.8,298.38 1141.8,279.23 1141.8,274.23 1112.8,293.38 1112.8,298.38" fill="#f7f7f7"/><polygon points="1112.8,276.23 1141.8,276.23 1141.8,272.23 1112.8,272.23 1112.8,276.23 1112.8,276.23" fill="none" stroke="#514d4b" stroke-width="2" stroke-miterlimit="2.61"/><polygon points="1112.8,333.23 1141.8,333.23 1141.8,248.23 1112.8,248.23 1112.8,333.23 1112.8,333.23" fill="none" stroke="#514d4b" stroke-width="2" stroke-miterlimit="2.61"/><polygon points="1112.8,305.23 1141.8,305.23 1141.8,301.23 1112.8,301.23 1112.8,305.23 1112.8,305.23" fill="none" stroke="#514d4b" stroke-width="2" stroke-miterlimit="2.61"/><line x1="1064.75" y1="318.23" x2="1064.75" y2="343.23" fill="none" stroke="#514d4b" stroke-width="2" stroke-miterlimit="2.61"/><rect width="8" height="10" rx="0" ry="0" transform="translate(1043.75 178.23)" fill="#fdfdfd"/><rect width="8" height="10" rx="0" ry="0" transform="translate(1043.75 193.23)" fill="#fdfdfd"/><rect width="8" height="10" rx="0" ry="0" transform="translate(1043.75 208.23)" fill="#fdfdfd"/><rect width="8" height="10" rx="0" ry="0" transform="translate(1043.75 223.23)" fill="#fdfdfd"/><path d="M1148.41,183.57c2.868535.000465,5.672842.849412,8.06,2.44c4.258483-9.197167,14.249215-14.294926,24.195198-12.34557s17.273204,10.441334,17.744802,20.56557h-64c1.718768-6.310626,7.459535-10.68181,14-10.66Z" fill="#00b4ff"/><rect width="5" height="33" rx="0" ry="0" transform="translate(1126.75 194.23)" fill="#fdfdfd"/><rect width="5" height="33" rx="0" ry="0" transform="translate(1134.75 194.23)" fill="#fdfdfd"/><rect width="5" height="33" rx="0" ry="0" transform="translate(1142.75 194.23)" fill="#fdfdfd"/><rect width="8" height="29" rx="0" ry="0" transform="translate(1181.75 129.23)" fill="#f7f7f7" stroke="#514d4b" stroke-width="2" stroke-miterlimit="2.61"/><rect width="8" height="29" rx="0" ry="0" transform="translate(1196.75 129.23)" fill="#f7f7f7" stroke="#514d4b" stroke-width="2" stroke-miterlimit="2.61"/><rect width="8" height="29" rx="0" ry="0" transform="translate(1211.75 129.23)" fill="#f7f7f7" stroke="#514d4b" stroke-width="2" stroke-miterlimit="2.61"/><line x1="1201.75" y1="102.23" x2="1201.75" y2="79.23" fill="none" stroke="#514d4b" stroke-width="2" stroke-miterlimit="2.61"/><rect width="9" height="10" rx="0" ry="0" transform="translate(1240.75 93.23)" fill="#fdfdfd"/><rect width="9" height="10" rx="0" ry="0" transform="translate(1254.75 93.23)" fill="#fdfdfd"/><rect width="9" height="10" rx="0" ry="0" transform="translate(1240.75 107.23)" fill="#fdfdfd"/><rect width="9" height="10" rx="0" ry="0" transform="translate(1254.75 107.23)" fill="#fdfdfd"/><rect width="9" height="10" rx="0" ry="0" transform="translate(1240.75 121.23)" fill="#fdfdfd"/><rect width="9" height="10" rx="0" ry="0" transform="translate(1254.75 120.267419)" fill="#fdfdfd"/><rect width="9" height="10" rx="0" ry="0" transform="translate(1240.75 135.23)" fill="#fdfdfd"/><rect width="9" height="10" rx="0" ry="0" transform="translate(1254.75 135.23)" fill="#fdfdfd"/><rect width="9" height="10" rx="0" ry="0" transform="translate(1240.75 149.23)" fill="#fdfdfd"/><rect width="9" height="10" rx="0" ry="0" transform="translate(1254.75 149.23)" fill="#fdfdfd"/><rect width="9" height="10" rx="0" ry="0" transform="translate(1240.75 163.23)" fill="#fdfdfd"/><rect width="9" height="10" rx="0" ry="0" transform="translate(1254.75 163.23)" fill="#fdfdfd"/><rect width="9" height="10" rx="0" ry="0" transform="translate(1240.75 177.23)" fill="#fdfdfd"/><rect width="9" height="10" rx="0" ry="0" transform="translate(1254.75 177.23)" fill="#fdfdfd"/><rect width="9" height="10" rx="0" ry="0" transform="translate(1240.75 191.23)" fill="#fdfdfd"/><rect width="9" height="10" rx="0" ry="0" transform="translate(1254.75 191.23)" fill="#fdfdfd"/><rect width="38" height="3" rx="0" ry="0" transform="translate(1423.59 317.23)" fill="#fdfdfd" stroke="#514d4b" stroke-width="2" stroke-miterlimit="2.61"/><rect width="38" height="3" rx="0" ry="0" transform="translate(1423.59 323.23)" fill="#fdfdfd" stroke="#514d4b" stroke-width="2" stroke-miterlimit="2.61"/><rect width="44" height="3" rx="0" ry="0" transform="translate(1420.59 330.23)" fill="#fdfdfd" stroke="#514d4b" stroke-width="2" stroke-miterlimit="2.61"/><line x1="1426.59" y1="343.23" x2="1426.59" y2="333.23" fill="none" stroke="#514d4b" stroke-width="2" stroke-miterlimit="2.61"/><line x1="1458.59" y1="333.23" x2="1458.59" y2="343.23" fill="none" stroke="#514d4b" stroke-width="2" stroke-miterlimit="2.61"/><rect width="9" height="19" rx="0" ry="0" transform="translate(1419.75 221.23)" fill="#fdfdfd"/><rect width="9" height="19" rx="0" ry="0" transform="translate(1419.75 193.23)" fill="#fdfdfd"/><rect width="9" height="19" rx="0" ry="0" transform="translate(1433.75 221.23)" fill="#fdfdfd"/><rect width="9" height="19" rx="0" ry="0" transform="translate(1433.75 193.73)" fill="#fdfdfd"/><rect width="9" height="19" rx="0" ry="0" transform="translate(1447.75 221.23)" fill="#fdfdfd"/><rect width="9" height="19" rx="0" ry="0" transform="translate(1447.75 193.23)" fill="#fdfdfd"/><rect width="9" height="19" rx="0" ry="0" transform="translate(1461.75 221.23)" fill="#fdfdfd"/><rect width="9" height="19" rx="0" ry="0" transform="translate(1461.75 193.23)" fill="#fdfdfd"/><rect width="104" height="46" rx="0" ry="0" transform="translate(1449.72 239.23)" fill="#fdfdfd" stroke="#514d4b" stroke-width="2" stroke-miterlimit="2.61"/><line x1="1501.75" y1="343.23" x2="1501.75" y2="285.23" fill="none" stroke="#514d4b" stroke-width="2" stroke-miterlimit="2.61"/><line x1="1477.75" y1="239.23" x2="1477.75" y2="232.23" fill="none" stroke="#514d4b" stroke-width="2" stroke-miterlimit="2.61"/><line x1="1494.75" y1="239.23" x2="1494.75" y2="232.23" fill="none" stroke="#514d4b" stroke-width="2" stroke-miterlimit="2.61"/><line x1="1511.75" y1="239.23" x2="1511.75" y2="232.23" fill="none" stroke="#514d4b" stroke-width="2" stroke-miterlimit="2.61"/><line x1="1528.75" y1="239.23" x2="1528.75" y2="232.23" fill="none" stroke="#514d4b" stroke-width="2" stroke-miterlimit="2.61"/><path d="M1526.75,228.23h4c1.104569,0,2,.895431,2,2v0c0,1.104569-.895431,2-2,2h-4c-1.104569,0-2-.895431-2-2v0c0-1.104569.895431-2,2-2Z" fill="none" stroke-width="2" stroke-miterlimit="10"/><path d="M1509.75,228.23h4c1.104569,0,2,.895431,2,2v0c0,1.104569-.895431,2-2,2h-4c-1.104569,0-2-.895431-2-2v0c0-1.104569.895431-2,2-2Z" fill="none" stroke-width="2" stroke-miterlimit="10"/><path d="M1475.75,228.23h4c1.104569,0,2,.895431,2,2v0c0,1.104569-.895431,2-2,2h-4c-1.104569,0-2-.895431-2-2v0c0-1.104569.895431-2,2-2Z" fill="none" stroke-width="2" stroke-miterlimit="10"/><path d="M1492.75,228.23h4c1.104569,0,2,.895431,2,2v0c0,1.104569-.895431,2-2,2h-4c-1.104569,0-2-.895431-2-2v0c0-1.104569.895431-2,2-2Z" fill="none" stroke-width="2" stroke-miterlimit="10"/><rect width="9" height="10" rx="0" ry="0" transform="translate(1603.75 178.23)" fill="#fdfdfd"/><rect width="9" height="10" rx="0" ry="0" transform="translate(1589.75 178.23)" fill="#fdfdfd"/><rect width="9" height="10" rx="0" ry="0" transform="translate(1575.75 178.23)" fill="#fdfdfd"/><rect width="9" height="10" rx="0" ry="0" transform="translate(1603.75 192.23)" fill="#50d7ff"/><rect width="9" height="10" rx="0" ry="0" transform="translate(1589.75 192.23)" fill="#fdfdfd"/><rect width="9" height="10" rx="0" ry="0" transform="translate(1575.75 192.23)" fill="#fdfdfd"/><rect width="9" height="10" rx="0" ry="0" transform="translate(1603.75 206.23)" fill="#fdfdfd"/><rect width="9" height="10" rx="0" ry="0" transform="translate(1589.75 206.23)" fill="#fdfdfd"/><rect width="9" height="10" rx="0" ry="0" transform="translate(1575.75 206.23)" fill="#fdfdfd"/><rect width="9" height="10" rx="0" ry="0" transform="translate(1603.75 220.23)" fill="#fdfdfd"/><rect width="9" height="10" rx="0" ry="0" transform="translate(1589.75 220.23)" fill="#fdfdfd"/><rect width="9" height="10" rx="0" ry="0" transform="translate(1575.75 220.23)" fill="#fdfdfd"/><g><path d="M1554.75,205.23c1.648905-.008876,3.262276.478968,4.63,1.4c2.444328-5.287851,8.18602-8.220331,13.90288-7.10068s9.928126,6.001423,10.19712,11.82068h-36.73c.979604-3.611874,4.25764-6.119571,8-6.12Z" fill="#fdfdfd" stroke="#514d4b" stroke-width="2" stroke-miterlimit="2.61"/></g><line x1="1648.75" y1="217.23" x2="1648.75" y2="199.23" fill="none" stroke="#514d4b" stroke-width="2" stroke-miterlimit="2.61"/><polygon points="1642.75,343.23 1654.75,343.23 1654.75,322.23 1642.75,322.23 1642.75,343.23 1642.75,343.23" fill="#fdfdfd" stroke="#514d4b" stroke-width="2" stroke-miterlimit="2.61"/><polygon points="1691.75,343.23 1699.75,343.23 1699.75,327.23 1691.75,327.23 1691.75,343.23 1691.75,343.23" fill="#fdfdfd" stroke="#514d4b" stroke-width="2" stroke-miterlimit="2.61"/><circle r="4.5" transform="translate(824.25 361.73)" fill="none" stroke="#514d4b" stroke-width="2" stroke-miterlimit="10"/><path d="M811.25,384.23h11c1.380712,0,2.5,1.119288,2.5,2.5v0c0,1.380712-1.119288,2.5-2.5,2.5h-11c-1.380712,0-2.5-1.119288-2.5-2.5v0c0-1.380712,1.119288-2.5,2.5-2.5Z" fill="#00b4ff" stroke="#514d4b" stroke-width="2" stroke-miterlimit="10"/><line x1="840.75" y1="399.23" x2="821.75" y2="399.23" fill="none" stroke="#514d4b" stroke-width="2" stroke-miterlimit="10"/><path d="M854.87,382.11h1.88v6.24h-1.88c-.827475,0-1.62106-.328713-2.206173-.913827s-.913827-1.378698-.913827-2.206173v0c0-.827475.328713-1.62106.913827-2.206173s1.378698-.913827,2.206173-.913827Z" fill="#fc0" stroke="#514d4b" stroke-width="2" stroke-miterlimit="10"/><circle r="10.5" transform="translate(860.25 407.73)" fill="#fdfdfd" stroke="#514d4b" stroke-width="2" stroke-miterlimit="10"/><circle r="5.73" transform="translate(860.25 407.73)" fill="#fc0" stroke="#514d4b" stroke-width="2" stroke-miterlimit="10"/><polyline points="859.75,406.23 845.75,377.23 837.75,377.23" fill="none" stroke="#514d4b" stroke-width="2" stroke-linecap="round" stroke-miterlimit="10"/><line x1="847.75" y1="383.23" x2="827.75" y2="383.23" fill="none" stroke="#514d4b" stroke-width="2" stroke-linecap="round" stroke-miterlimit="10"/><line x1="809.75" y1="390.23" x2="851.75" y2="390.23" fill="none" stroke="#514d4b" stroke-width="2" stroke-linecap="round" stroke-miterlimit="10"/><polyline points="820.75,408.23 835.75,408.23 845.75,390.23" fill="none" stroke="#514d4b" stroke-width="2" stroke-miterlimit="10"/><path d="M839.45,386.28l.09-.17.08-.18.06-.19v-1c-.010946-.062648-.031168-.123314-.06-.18l-.06-.18-.09-.17c0-.06-.07-.12-.11-.17-.033522-.049054-.07027-.095824-.11-.14l-.15-.16v0l-.1-.07c-.052265-.048805-.109206-.092348-.17-.13l-.17-.09-.18-.08-.19-.06h-10.54v-8.22l8.24,3.35c1.08524.441828,2.323172-.07976,2.765-1.165s-.07976-2.323172-1.165-2.765v0l-10-4.05c-.130144-.059618-.268249-.100039-.41-.12-.906992-1.563567-2.749882-2.324563-4.495813-1.856484s-2.960989,2.048899-2.964187,3.856484v11c0,2.209139,1.790861,4,4,4h9.59l-6.56,7.35c-.533059.526169-.727443,1.306082-.50368,2.02088s.828165,1.244656,1.566099,1.372947s1.485701-.166491,1.937581-.763827l9.46-10.8c.028856-.029106.052529-.062925.07-.1.060332-.042029.117182-.088847.17-.14Z" fill="#fdfdfd" stroke="#514d4b" stroke-width="2" stroke-miterlimit="10"/><line x1="809.75" y1="418.23" x2="793.75" y2="418.23" fill="none" stroke="#514d4b" stroke-width="2" stroke-miterlimit="10"/><line x1="788.75" y1="418.23" x2="776.75" y2="418.23" fill="none" stroke="#514d4b" stroke-width="2" stroke-miterlimit="10"/><path d="M824.75,407.73c.000914-6.807468-4.733926-12.69901-11.38216-14.162775s-13.419617,1.894411-16.27784,8.072775" fill="none" stroke="#514d4b" stroke-width="2" stroke-linecap="round" stroke-miterlimit="10"/><path d="M810.25,390.23c-3.682898.007679-7.26961,1.176422-10.25,3.34" fill="none" stroke="#514d4b" stroke-width="2" stroke-linecap="round" stroke-linejoin="round"/><circle r="10.5" transform="translate(810.25 407.73)" fill="#fdfdfd" stroke="#514d4b" stroke-width="2" stroke-miterlimit="10"/><circle r="5.73" transform="translate(810.25 407.73)" fill="#00b4ff" stroke="#514d4b" stroke-width="2" stroke-miterlimit="10"/><line x1="859.75" y1="418.23" x2="846.75" y2="418.23" fill="none" stroke="#514d4b" stroke-width="2" stroke-miterlimit="10"/><line x1="843.75" y1="418.23" x2="840.75" y2="418.23" fill="none" stroke="#514d4b" stroke-width="2" stroke-miterlimit="10"/><path d="M1079.75,413.23v0v20h-6v-14c0-3.313708,2.686292-6,6-6Z" fill="none" stroke="#514d4b" stroke-width="2" stroke-miterlimit="10"/><polygon points="1109.75,441.23 1079.75,441.23 1079.75,413.23 1109.75,411.23 1109.75,441.23" fill="none" stroke="#514d4b" stroke-width="2" stroke-linejoin="round"/><rect width="45" height="30" rx="0" ry="0" transform="translate(1109.75 411.23)" fill="none" stroke="#514d4b" stroke-width="2" stroke-linejoin="round"/><polyline points="1077.75,420.23 1073.75,420.23 1073.75,425.23 1077.75,425.23" fill="none" stroke="#514d4b" stroke-width="2" stroke-miterlimit="10"/><polyline points="1077.75,425.23 1073.75,425.23 1073.75,430.23 1077.75,430.23" fill="none" stroke="#514d4b" stroke-width="2" stroke-miterlimit="10"/><path d="M1090.21,415.23h9.06c5.69685,0,11.160372,2.263065,15.188654,6.291346s6.291346,9.491804,6.291346,15.188654v4.52h-41v-15.54c0-2.774164,1.102033-5.434706,3.063663-7.396337s4.622173-3.063663,7.396337-3.063663Z" fill="#00b4ff" stroke="#514d4b" stroke-width="2" stroke-miterlimit="10"/><ellipse rx="2.5" ry="5.5" transform="translate(1085.25 425.73)" fill="#fdfdfd" stroke="#514d4b" stroke-width="2" stroke-miterlimit="10"/><path d="M1203.75,432.23c0-5.42-3.5-13.47-9.61-21h-39.39v22h49Z" fill="#00b4ff"/><path d="M1154.75,411.23h-45l12.73-15c2.715329-3.173684,6.683245-5.000533,10.86-5h21.41Z" fill="none" stroke="#514d4b" stroke-width="2" stroke-linejoin="round"/><polyline points="1193.75,411.23 1154.75,411.23 1154.75,391.23" fill="none" stroke="#514d4b" stroke-width="2" stroke-miterlimit="10"/><line x1="1175.75" y1="396.23" x2="1180.75" y2="411.23" fill="none" stroke="#514d4b" stroke-width="2" stroke-miterlimit="10"/><path d="M1074.08,433.23h7.67v8h-7.67c-.734539,0-1.33-.595461-1.33-1.33v-5.33c-.000082-.732321.587761-1.32907,1.32-1.34Z" fill="#fdfdfd" stroke="#514d4b" stroke-width="2" stroke-miterlimit="10"/><path d="M1122.75,413.23h2c1.656854,0,3,1.343146,3,3h-8c0-1.656854,1.343146-3,3-3Z" fill="#514d4b"/><path d="M1154.75,391.23h1c28,0,48,28,48,41v1h-49Z" fill="none" stroke="#514d4b" stroke-width="2" stroke-linejoin="round"/><path d="M1205.42,441.23h-7.67v-8h7.67c.732272.005445,1.324555.597728,1.33,1.33v5.33c.005357.353538-.131345.694446-.379476.946337s-.586945.393704-.940524.393663Z" fill="#fdfdfd" stroke="#514d4b" stroke-width="2" stroke-miterlimit="10"/><path d="M1200.75,441.23h-46c0-12.702549,10.297451-23,23-23v0c12.702549,0,23,10.297451,23,23Z" fill="#fdfdfd" stroke="#514d4b" stroke-width="2" stroke-miterlimit="10"/><line x1="1100.75" y1="452.23" x2="1124.75" y2="452.23" fill="none" stroke="#514d4b" stroke-width="2" stroke-miterlimit="10"/><line x1="1128.75" y1="452.23" x2="1133.75" y2="452.23" fill="none" stroke="#514d4b" stroke-width="2" stroke-miterlimit="10"/><circle r="10.5" transform="translate(1100.25 441.73)" fill="#fdfdfd" stroke="#514d4b" stroke-width="2" stroke-miterlimit="10"/><circle r="5.73" transform="translate(1100.25 441.73)" fill="#fdfdfd" stroke="#514d4b" stroke-width="2" stroke-miterlimit="10"/><line x1="1178.75" y1="452.23" x2="1203.75" y2="452.23" fill="none" stroke="#514d4b" stroke-width="2" stroke-miterlimit="10"/><line x1="1207.75" y1="452.23" x2="1219.75" y2="452.23" fill="none" stroke="#514d4b" stroke-width="2" stroke-miterlimit="10"/><circle r="10.5" transform="translate(1178.25 441.73)" fill="#fdfdfd" stroke="#514d4b" stroke-width="2" stroke-miterlimit="10"/><circle r="5.73" transform="translate(1178.25 441.73)" fill="#fdfdfd" stroke="#514d4b" stroke-width="2" stroke-miterlimit="10"/><path d="M585.53,19.91L575,5.58c-.076016-.108185-.105085-.242498-.080605-.372433s.100433-.244461.210605-.317567c.059761-.049779.132739-.081055.21-.09l7-.87c.111422-.01175.22366.012802.32.07l20.85,12.91" fill="#fdfdfd" stroke="#514d4b" stroke-width="2" stroke-miterlimit="2.61"/><path d="M561.53,23.91L541,1.37c-.251561-.281224-.625975-.419758-1-.37l-4.19.7c-.304308.039725-.580115.199434-.766047.443587s-.266564.552495-.223953.856413s0,0,0,0l5.73,24.82" fill="#fdfdfd" stroke="#514d4b" stroke-width="2" stroke-miterlimit="2.61"/><path d="M645.35,32.09c.996487-.157345,1.814117-.872849,2.10224-1.839664s-.004447-2.013173-.75224-2.690336l-4.89-4.42c-7.609231-6.880881-17.933094-9.930946-28.06-8.29l-79,12.89c-1.381299.210718-2.333017,1.497548-2.13,2.88.027985.167024.071507.33107.13.49l.26.74c3.6,9.82,37.84,12.46,48.18,10.88Z" fill="#fdfdfd" stroke="#514d4b" stroke-width="2" stroke-miterlimit="2.61"/><path d="M612.75,32.23L592,52c-.162867.152348-.376994.237999-.6.24h-7.92c-.231531.005386-.455449-.082838-.621082-.244706s-.258981-.3837-.258918-.615294c-.005212-.190853.054748-.377787.17-.53l13-17.61" fill="#fdfdfd" stroke="#514d4b" stroke-width="2" stroke-miterlimit="2.61"/><path d="M548.86,34l14.28-2.72c.547616-.109792,1.096478.18278,1.310599.698619s.033793,1.111094-.430599,1.421381L542,48.25c-.491599.354127-1.164143.315086-1.611462-.093547s-.546874-1.074913-.238538-1.596453l7-11.33c.366114-.637266.989382-1.085581,1.71-1.23Z" fill="#00b4ff"/><line x1="591.75" y1="27.92" x2="588.75" y2="28.36" fill="none" stroke="#514d4b" stroke-width="2" stroke-miterlimit="2.61"/><line x1="609.75" y1="24.61" x2="606.75" y2="25.04" fill="none" stroke="#00b4ff" stroke-width="2" stroke-miterlimit="2.61"/><line x1="604.75" y1="25.61" x2="601.75" y2="26.04" fill="none" stroke="#514d4b" stroke-width="2" stroke-miterlimit="2.61"/><line x1="600.75" y1="26.61" x2="597.75" y2="27.04" fill="none" stroke-width="2" stroke-miterlimit="2.61"/><line x1="596.75" y1="27.61" x2="593.75" y2="28.04" fill="none" stroke="#00b4ff" stroke-width="2" stroke-miterlimit="2.61"/><line x1="615.75" y1="23.29" x2="612.75" y2="23.73" fill="none" stroke="#00b4ff" stroke-width="2" stroke-miterlimit="2.61"/><line x1="636.75" y1="20.23" x2="627.75" y2="21.54" fill="none" stroke="#514d4b" stroke-width="2" stroke-miterlimit="2.61"/><line x1="624.75" y1="21.98" x2="621.75" y2="22.42" fill="none" stroke-width="2" stroke-miterlimit="2.61"/><line x1="619.75" y1="22.98" x2="616.75" y2="23.42" fill="none" stroke-width="2" stroke-miterlimit="2.61"/><line x1="523.75" y1="23.23" x2="510.75" y2="24.23" fill="none" stroke="#514d4b" stroke-width="2" stroke-miterlimit="2.61"/><line x1="528.75" y1="43.23" x2="497.75" y2="46.23" fill="none" stroke="#514d4b" stroke-width="2" stroke-miterlimit="2.61"/><line x1="573.75" y1="53.23" x2="558.75" y2="55.23" fill="none" stroke="#514d4b" stroke-width="2" stroke-miterlimit="2.61"/><line x1="552.75" y1="55.23" x2="546.75" y2="56.23" fill="none" stroke="#514d4b" stroke-width="2" stroke-miterlimit="2.61"/></g></g></svg>