<svg id="ejEeAMYWJ0n1" xmlns="http://www.w3.org/2000/svg" xmlns:xlink="http://www.w3.org/1999/xlink" viewBox="0 0 307.7 297.72" shape-rendering="geometricPrecision" text-rendering="geometricPrecision"><g><g><path d="M157.88,53.91c52.393952.005523,94.863681,42.482714,94.86,94.876666s-42.479381,94.865174-94.873333,94.863333-94.866667-42.476047-94.866667-94.869999c.005522-52.392967,42.477033-94.864478,94.87-94.87Z" fill="none" stroke="#4a4a4a" stroke-width="7" stroke-miterlimit="2.61"/><path d="M116.73,116.06c12.171178-.004045,23.146153,7.324583,27.806664,18.568125s2.088607,24.187427-6.516285,32.79518-21.547922,11.183959-32.793013,6.527186-18.577365-15.629312-18.577366-27.800491c-.000001-16.614344,13.465657-30.084478,30.08-30.09Z" fill="#00b4ff" fill-rule="evenodd" stroke="#4a4a4a" stroke-width="7" stroke-miterlimit="2.61"/><path d="M192.68,92.81c9.89142,0,17.91,8.01858,17.91,17.91s-8.01858,17.91-17.91,17.91-17.91-8.01858-17.91-17.91c-.002655-4.750841,1.883434-9.307862,5.242786-12.667214s7.916373-5.245441,12.667214-5.242786Z" transform="translate(-.708688-.708688)" fill="#00b4ff" fill-rule="evenodd" stroke="#4a4a4a" stroke-width="7" stroke-miterlimit="2.61"/><path d="M48.34,211.08c4.768805,1.620694,8.091328,5.955013,8.417697,10.981109s-2.407721,9.753699-6.926884,11.977506-9.933013,1.505668-13.716125-1.81942-5.190119-8.602002-3.564688-13.369195c2.217437-6.503476,9.284325-9.980975,15.79-7.77Z" fill="#fc0" fill-rule="evenodd" stroke="#4a4a4a" stroke-width="7" stroke-miterlimit="2.61"/><path d="M52.29,217.75l-2.86-3.69l26.82-20.81c.695862,3.136843,2.167431,6.049037,4.28,8.47l-25.39,19.7-2.85-3.67Z" fill="#4a4a4a"/><path d="M73.75,51.58c-.795836,4.972843-4.509187,8.976459-9.408194,10.143614s-10.018667-.732056-12.971236-4.811866-3.156454-9.536582-.516564-13.825346s7.60355-6.564725,12.575994-5.766402c6.786605,1.089585,11.406192,7.472851,10.32,14.26Z" fill="#00b4ff" fill-rule="evenodd" stroke="#4a4a4a" stroke-width="7" stroke-miterlimit="2.61"/><path d="M67.84,56.6L71,53.16L96,76.09c-2.977061,1.213392-5.600948,3.156375-7.63,5.65L64.7,60l3.14-3.42Z" fill="#4a4a4a"/><path d="M232.51,45.63c-5.008011.528744-9.840786-2.013954-12.241527-6.440712s-1.895811-9.864228,1.279001-13.773233s8.39315-5.518343,13.218169-4.07649s8.304797,5.650435,8.814357,10.660435c.347093,3.282246-.6244,6.567889-2.700613,9.133615s-5.08694,4.201202-8.369387,4.546385Z" fill="#fc0" fill-rule="evenodd" stroke="#4a4a4a" stroke-width="7" stroke-miterlimit="2.61"/><path d="M226.13,41.24l4.14,2.15-15.6,30.15c-1.951479-2.551612-4.508689-4.576071-7.44-5.89L222,39.11l4.13,2.13Z" fill="#4a4a4a"/><path d="M283.73,117.51c-5.256301-4.423652-5.931601-12.270681-1.508367-17.527334s12.27021-5.932576,17.527214-1.50976s5.933551,12.269738,1.511153,17.527094c-2.126995,2.522273-5.168866,4.096265-8.456401,4.375696s-6.55142-.758589-9.073599-2.885696Z" fill="#00b4ff" fill-rule="evenodd" stroke="#4a4a4a" stroke-width="7" stroke-miterlimit="2.61"/><path d="M282.47,109.87l1.33,4.48L251.25,124c.487379-3.176658.174603-6.424718-.91-9.45l30.82-9.12l1.31,4.46Z" fill="#4a4a4a"/><path d="M222.94,256.16c1.547976-4.788514,5.82855-8.172667,10.845033-8.573909s9.780555,2.25948,12.069995,6.741059s1.653197,9.901083-1.611952,13.73056-8.515922,5.314467-13.303076,3.76229c-6.527545-2.122267-10.106059-9.127207-8-15.66Z" fill="#00b4ff" fill-rule="evenodd" stroke="#4a4a4a" stroke-width="7" stroke-miterlimit="2.61"/><path d="M229.54,252.1L225.9,255l-21.26-26.46c3.122165-.754349,6.006246-2.277171,8.39-4.43l20.13,25.06-3.62,2.91Z" fill="#4a4a4a"/><path d="M150.47,275.53l-4.66-.21l1.58-33.91c2.839657,1.500667,6.008346,2.270501,9.22,2.24l-1.5,32.1-4.64-.22Z" fill="#4a4a4a"/><path d="M196.53,157.87c9.89142,0,17.91,8.01858,17.91,17.91s-8.01858,17.91-17.91,17.91-17.91-8.01858-17.91-17.91s8.018581-17.91,17.91-17.91Z" fill="#fc0" fill-rule="evenodd" stroke="#4a4a4a" stroke-width="7" stroke-miterlimit="2.61"/><path d="M141.35,264.8c5.500931-3.268587,12.429173-2.901555,17.553969.929941s7.436856,10.372874,5.858029,16.573778-6.737606,10.840112-13.070709,11.754284-12.593274-2.076732-15.861289-7.578003c-2.145425-3.606341-2.769148-7.917656-1.733763-11.984168s3.644932-7.554596,7.253763-9.695832Z" fill="#00b4ff" fill-rule="evenodd" stroke="#4a4a4a" stroke-width="7" stroke-miterlimit="2.61"/><path d="M30.45,136.72l.24-4.66l33.9,1.71c-1.522354,2.836227-2.303199,6.011204-2.27,9.23l-32.1-1.61.23-4.65Z" fill="#4a4a4a"/><path d="M36.22,126.49c4.92433,8.360622,2.139174,19.13018-6.221017,24.055242s-19.129993,2.140849-24.055787-6.218911-2.142524-19.129805,6.216804-24.056331c4.015229-2.366354,8.806137-3.040438,13.318443-1.873915s8.376258,4.078065,10.741557,8.093915Z" fill="#fc0" fill-rule="evenodd" stroke="#4a4a4a" stroke-width="7" stroke-miterlimit="2.61"/><path d="M281.38,180.4l-.95,4.57-33.24-6.89c1.935413-2.567856,3.197108-5.579421,3.67-8.76l31.46,6.53-.94,4.55Z" fill="#4a4a4a"/><path d="M269.34,187.72c-2.363498-5.946555-.911877-12.731322,3.677895-17.190206s11.413686-5.713654,17.289392-3.179148s9.645916,8.35909,9.552383,14.757441-4.03239,12.11024-9.97967,14.471913c-8.118565,3.223892-17.313616-.742425-20.54-8.86Z" fill="#00b4ff" fill-rule="evenodd" stroke="#4a4a4a" stroke-width="7" stroke-miterlimit="2.61"/><path d="M154,22.19l4.66.2-1.47,33.92c-2.831458-1.491651-5.989847-2.254614-9.19-2.22L149.38,22l4.65.2Z" fill="#4a4a4a"/><path d="M163.18,32.9c-7.496954,4.486642-17.211568,2.046468-21.698448-5.450343s-2.047015-17.211503,5.449653-21.698622s17.211439-2.047561,21.698795,5.448965c4.481851,7.498071,2.042832,17.209395-5.45,21.7Z" fill="#00b4ff" fill-rule="evenodd" stroke="#4a4a4a" stroke-width="7" stroke-miterlimit="2.61"/></g></g></svg>