<svg id="e8oTtPm96Ku1" xmlns="http://www.w3.org/2000/svg" xmlns:xlink="http://www.w3.org/1999/xlink" viewBox="-20 0 80.81 41" shape-rendering="geometricPrecision" text-rendering="geometricPrecision"><g><g><path d="M4.22,1.3h2v.93h-2c-1.817017,0-3.29,1.472983-3.29,3.29v9.21c0,5.550462,4.499538,10.05,10.05,10.05s10.05-4.499538,10.05-10.05v-9.21c.000004-.874298-.347992-1.712641-.967152-2.329924s-1.458554-.962733-2.332848-.960076h-1.18v-.93h1.18c1.127049-.010661,2.211747.428914,3.013406,1.221186s1.25398,1.871718,1.256594,2.998814v9.21c0,6.075132-4.924868,11-11,11s-11-4.924868-11-11v-9.21C0.005498,3.191639,1.891639,1.305498,4.22,1.3Z" fill="#4a4a4a"/><polygon points="21.01,18.09 21.01,18.57 1.19,18.57 1.19,17.6 21.01,17.6 21.01,18.09 21.01,18.09" fill="#4a4a4a"/><path d="M7.2,0.5c.484334-.061386.96054.162541,1.222191.574714s.261652.9384,0,1.350572-.737857.6361-1.222191.574714c-.484334.061386-.96054-.162541-1.222191-.574714s-.261652-.9384,0-1.350572.737857-.6361,1.222191-.574714Z" fill="#00b4ff" fill-rule="evenodd"/><path d="M7.2,3.49c-.700615.00405-1.334499-.414874-1.605424-1.060999s-.125392-1.391864.368589-1.888716s1.238862-.646706,1.886547-.379531s1.070276.898619,1.070288,1.599246c-.005393.949321-.770727,1.719103-1.72,1.73ZM7.2,1c-.211248-.002674-.414766.079376-.56509.22782s-.234927.350915-.23491.56218c0,.441828.358172.8.8.8.21837.003046.428258-.084441.579816-.241683s.231263-.370207.220184-.588317c-.016244-.428452-.371278-.765735-.8-.76Z" fill="#00b4ff"/><path d="M15,0.46c.690246.021924,1.234223.595381,1.219722,1.285823s-.582076,1.240553-1.272634,1.233476-1.24674-.568705-1.247088-1.259299c-.000172-.34122.138054-.66792.383074-.9054s.575878-.365432.916926-.3546Z" fill="#00b4ff" fill-rule="evenodd"/><path d="M15,3.45c-.700615.00405-1.334499-.414874-1.605424-1.060999s-.125392-1.391864.368589-1.888716s1.238862-.646706,1.886547-.379531s1.070276.898619,1.070288,1.599246c.002662.457903-.177376.897965-.500227,1.222693s-.761863.507315-1.219773.507307Zm0-2.52c-.324474.000025-.616796.196039-.740012.496208s-.052918.645033.177958.873024.576598.293945.875193.166963.490917-.421746.486861-.746195c-.005474-.437918-.362048-.790034-.8-.79Z" fill="#00b4ff"/><path d="M9.85,27.56v-1.72h-1.46c-.469012.000279-.853827-.371267-.87-.84v0c0-.230738.09166-.452026.254817-.615183s.384445-.254817.615183-.254817h5.21c.230738,0,.452026.09166.615183.254817s.254817.384445.254817.615183v0c0,.230738-.09166.452026-.254817.615183s-.384445.254817-.615183.254817h-1.29v1.72c-.005438.677045-.552955,1.224562-1.23,1.23v0c-.677045-.005438-1.224562-.552955-1.23-1.23Z" fill="#00b4ff" fill-rule="evenodd"/><path d="M11.08,29.25c-.448216,0-.878074-.178053-1.19501-.49499s-.49499-.746794-.49499-1.19501v-1.26h-1c-.504535.043708-.990608-.200754-1.256347-.631856s-.265738-.975187,0-1.406288.751812-.675564,1.256347-.631856h5.21c.504535-.043708.990608.200754,1.256347.631856s.265738.975187,0,1.406288-.751812.675564-1.256347.631856h-.83v1.26c0,.933361-.756639,1.69-1.69,1.69ZM8.39,24.56c-.159882-.0252-.319627.046018-.407746.181784s-.08812.310667,0,.446432.247864.206984.407746.181784h1.93v2.19c0,.419736.340264.76.76.76s.76-.340264.76-.76v-2.19h1.76c.159882.0252.319627-.046018.407746-.181784s.08812-.310667,0-.446432-.247864-.206984-.407746-.181784Z" fill="#4a4a4a"/><path d="M23.67,21.3v-7.49c0-3.885323,3.149677-7.035,7.035-7.035s7.035,3.149677,7.035,7.035v8.24c.001051.124642-.049644.244137-.14.33-.085731.083255-.200496.129878-.32.13-.122757.001428-.2412-.045231-.33-.13-.090356-.085863-.141051-.205358-.14-.33v-8.24c-.1326-3.275639-2.826679-5.862866-6.105-5.862866s-5.9724,2.587227-6.105,5.862866v7.19v0v12.74c0,3.885323-3.149677,7.035-7.035,7.035s-7.035-3.149677-7.035-7.035v-4.74h.93v4.71c.1326,3.275639,2.826679,5.862866,6.105,5.862866s5.9724-2.587227,6.105-5.862866v-12.41Z" fill="#4a4a4a"/><path d="M37.29,28.87c-1.424616-.000006-2.708764-.858712-3.253002-2.175274s-.241244-2.831358.767543-3.83728s2.52444-1.304604,3.839448-.756623s2.170058,1.834567,2.166011,3.259177c.000004.932645-.371171,1.826946-1.031588,2.485487s-1.555771,1.02717-2.488412,1.024513Zm0-6.1c-1.047557,0-1.991965.631033-2.392848,1.59885s-.179293,2.081822.561441,2.822557s1.85474.962324,2.822557.561441s1.59885-1.345291,1.59885-2.392848c0-.686911-.272874-1.345687-.758593-1.831407s-1.144496-.758593-1.831407-.758593Z" fill="#4a4a4a"/><path d="M37.29,23.89c.594559,0,1.130575.358154,1.358103.907455s.101761,1.181575-.318656,1.601992-1.05269.546184-1.601992.318656-.907455-.763544-.907455-1.358103c0-.811859.658141-1.47,1.47-1.47Z" fill="#fc0" fill-rule="evenodd"/><path d="M37.29,27.29c-.785565-.00001-1.493583-.473766-1.793263-1.199922s-.131861-1.561364.425051-2.115405s1.392975-.717542,2.117573-.414113s1.194688,1.013886,1.190639,1.79944c.000007.513605-.204704,1.00603-.568815,1.368264s-.857587.564397-1.371185.561736Zm0-2.94c-.552285,0-1,.447715-1,1s.447715,1,1,1s1-.447715,1-1-.447715-1-1-1Z" fill="#4a4a4a"/></g></g></svg>