<svg id="enGBL9qK0SE1" xmlns="http://www.w3.org/2000/svg" xmlns:xlink="http://www.w3.org/1999/xlink" viewBox="-30 0 85.39 43.09" shape-rendering="geometricPrecision" text-rendering="geometricPrecision"><g><g><path d="M18.18,2.94c1.436744-.004047,2.734269.858312,3.286894,2.18453s.251375,2.854775-.763127,3.872142-2.542201,1.322928-3.869973.774046-2.193788-1.843968-2.193794-3.280718c-.000008-1.956712,1.583296-3.544488,3.54-3.55Z" fill="#00b4ff" fill-rule="evenodd"/><path d="M18.18,2.91c1.709763.022799,3.164723,1.251522,3.473436,2.933338s-.615013,3.347169-2.205216,3.975708-3.402907.044778-4.327478-1.393615-.702875-3.329827.529258-4.515431c.677694-.655122,1.587537-1.014744,2.53-1ZM20.66,4c-1.170849-1.197595-3.024712-1.40112-4.427496-.486069s-1.963638,2.693723-1.339463,4.24792s2.25947,2.45088,3.905499,2.141509s2.844168-1.738599,2.86146-3.41336c.010701-.92989-.349106-1.82581-1-2.49Z" fill="#35abe2"/><path d="M7.69,0c2.071375-.003672,3.856636,1.456965,4.263252,3.488042s-.678761,4.066407-2.59191,4.860427-4.12076.125386-5.271836-1.596716-.924741-4.017616.540494-5.481753C5.440056,0.455882,6.541533,-0.001267,7.69,0Zm2.45,1.88c-.6494-.648577-1.532235-1.008918-2.45-1-1.841414.098959-3.283788,1.620929-3.283788,3.465s1.442374,3.366041,3.283788,3.465c1.914148-.005493,3.464507-1.555852,3.47-3.47.005568-.917122-.354267-1.798716-1-2.45Z" fill="#4a4a4a"/><path d="M18.18,2.16c2.389112.005499,4.324501,1.940888,4.33,4.33c0,2.391393-1.938607,4.33-4.33,4.33s-4.33-1.938607-4.33-4.33s1.938607-4.33,4.33-4.33ZM20.63,4c-1.158431-1.168389-2.980727-1.35616-4.353071-.448544s-1.912803,2.658024-1.29104,4.181344s2.232708,2.395604,3.848199,2.083696s2.785924-1.721201,2.795912-3.366496c.005568-.917122-.354267-1.798716-1-2.45Z" fill="#4a4a4a"/><path d="M12.75,14.38c2.391393,0,4.33,1.938607,4.33,4.33s-1.938607,4.33-4.33,4.33-4.33-1.938607-4.33-4.33s1.938607-4.33,4.33-4.33Zm2.45,1.88c-.650033-.647623-1.53245-1.007793-2.45-1-1.282342-.068914-2.497895.576026-3.159791,1.6765s-.661895,2.476526,0,3.577s1.877449,1.745414,3.159791,1.6765c1.401561.002768,2.666345-.840265,3.203074-2.134986s.239365-2.785345-.753074-3.775014Z" fill="#4a4a4a"/><path d="M17.27,27.5v5.5h1.73v-3.69c0-3.41312-2.76688-6.18-6.18-6.18s-6.18,2.76688-6.18,6.18v3.69h1.65v-5.5h.89v12.81c.001109.267246.109144.522929.3.71.186261.184744.43766.288895.7.29h5.2c.552285,0,1-.447715,1-1v-12.81Zm0,6.35v6.46c.002678.502075-.195587.984362-.550613,1.339387s-.837312.553291-1.339387.550613h-5.2c-.498955.001445-.977797-.196572-1.33-.55-.354914-.356117-.555981-.837241-.56-1.34v-6.46h-2.12c-.237482,0-.43-.192518-.43-.43v-4.11c0-3.890846,3.154154-7.045,7.045-7.045s7.045,3.154154,7.045,7.045v4.11c-.005435.239091-.200847.430062-.44.43Z" fill="#4a4a4a"/><polygon points="12.76,42.04 12.29,42.04 12.29,34.33 13.22,34.33 13.22,42.04 12.76,42.04 12.76,42.04" fill="#4a4a4a"/><path d="M9.92,41.52c-.235057.915306-1.055058,1.559006-2,1.57h-3.17c-.553387.000006-1.083965-.220508-1.474329-.612749s-.608332-.92387-.605671-1.477251v-13.33c-.777969-.482876-1.42937-1.144563-1.9-1.93-.504421-.857798-.770271-1.834883-.77-2.83v-9.43c.005504-3.084989,2.505011-5.584496,5.59-5.59h4.41c.902824-.002874,1.792424.21695,2.59.64.718028.37779,1.345743.906572,1.84,1.55l.35-.05c.21641-.014905.43359-.014905.65,0h4.37c3.084989.005504,5.584496,2.505011,5.59,5.59v10.63c-.001038,1.091108-.320801,2.158146-.92,3.07-.552246.826895-1.31051,1.495547-2.2,1.94v9.91c-.000304.506447-.201736.99204-.56,1.35-.356698.360147-.843112.561919-1.35.56h-2.82c-.915558-.007611-1.698359-.660643-1.87-1.56h.89c.055763.14574.140853.27848.25.39.191911.195856.455827.304315.73.3h2.82c.277623.007092.545691-.101584.74-.3.190863-.199284.298207-.464066.3-.74v-10.46l.26-.11c.853074-.370814,1.57942-.982474,2.09-1.76.506276-.768597.774157-1.669653.77-2.59v-10.67c-.010912-2.603878-2.116151-4.713577-4.72-4.73h-4.39c-.183189-.010276-.366811-.010276-.55,0-.178299.019435-.35528.049488-.53.09l-.29.07-.17-.25C12.98538,9.498519,11.540741,8.748203,10,8.75h-4.41c-2.608401.005515-4.720006,2.121593-4.72,4.73v9.43c-.004396.840912.220312,1.667144.65,2.39.436414.71452,1.053936,1.300993,1.79,1.7l.22.13v13.87c.002498.322801.131797.631681.36.86.227073.230055.536755.359689.86.36h3.15c.471777.001064.901153-.272175,1.1-.7Z" fill="#4a4a4a"/></g></g></svg>