<svg xmlns="http://www.w3.org/2000/svg" viewBox="0 0 100 50" width="100" height="50"><g data-name="Layer 2"><g data-name="Layer 1"><g data-name="corporate health"><g data-name="Layer 3"><path fill="none" stroke="#4a4a4a" stroke-linecap="round" stroke-linejoin="round" d="M49.47 43.5H26.95M38.47 14.76V2.5h18v21"></path><path fill="none" stroke="#4a4a4a" stroke-linecap="round" stroke-linejoin="round" d="M42.47 43.5v-31l-8 4.52"></path><path d="M70.14 27.61a6.44 6.44 0 0 0-8.58.6l-2 2-2-2a6.44 6.44 0 0 0-8.58-.6 6.25 6.25 0 0 0-.93 8.79 6.14 6.14 0 0 0 .42.47l2.21 2.21 8.11 8.11a1 1 0 0 0 1.41.07l.07-.07 8.11-8.11 2.21-2.21a6.25 6.25 0 0 0 0-8.84 6 6 0 0 0-.45-.42Z" fill="#00b4ff"></path><path fill="none" stroke="#4a4a4a" stroke-linecap="round" stroke-linejoin="round" d="M45.61 36.08h9.41l2.19-2.66 4.45 5.33 2.47-2.67h10.34M34.47 43.5h-10v-39l10 8.05V43.5z"></path><path fill="#fc0" d="M44.97 6.5h5v2h-5zM44.97 10.5h5v2h-5z"></path><path fill="none" stroke="#4a4a4a" stroke-linecap="round" stroke-linejoin="round" d="M32.04 10.3v-3"></path><path fill="none" d="M0 0h100v50H0z"></path></g></g></g></g></svg>