<svg id="ezNKEx4DnbM1" xmlns="http://www.w3.org/2000/svg" xmlns:xlink="http://www.w3.org/1999/xlink" viewBox="-22 5 85.93 26" shape-rendering="geometricPrecision" text-rendering="geometricPrecision"><g transform="matrix(.886798 0 0 0.646003 1.929883 5.528912)"><g><path d="M41.21,12v22.22c-.005416,1.159178-.940861,2.099077-2.1,2.11h-28c-1.163046-.005473-2.104527-.946954-2.11-2.11L9,12h1v22.22c-.002668.296119.113099.581028.321555.791361s.492314.328651.788445.328639h28c.612387-.010817,1.104675-.507541,1.11-1.12v-22.22Z" fill="#4a4a4a"/><polygon points="14.15,16.43 21.18,16.43 21.18,23.24 14.15,23.24 14.15,16.43 14.15,16.43" fill="#00b4ff" fill-rule="evenodd"/><path d="M14.15,15.93h7.53v7.81h-8v-7.81Zm6.53,1h-6v5.82h6v-5.82Z" fill="#4a4a4a"/><path d="M22.23,26.56h5.77v9.69h-6.26v-9.69Zm4.72,1h-4.22v7.79h4.27v-7.79Z" fill="#4a4a4a"/><polygon points="21.18,19.84 21.18,20.36 14.15,20.36 14.15,19.32 21.18,19.32 21.18,19.84 21.18,19.84" fill="#4a4a4a"/><polygon points="17.66,23.54 17.14,23.54 17.14,16.51 18.18,16.51 18.18,23.54 17.66,23.54 17.66,23.54" fill="#4a4a4a"/><polygon points="28.86,16.47 35.88,16.47 35.88,23.28 28.86,23.28 28.86,16.47 28.86,16.47" fill="#00b4ff" fill-rule="evenodd"/><path d="M28.86,16h7.52v7.81h-8v-7.81Zm6.53,1h-6v5.82h6v-5.82Z" fill="#4a4a4a"/><polygon points="35.88,19.88 35.88,20.4 28.86,20.4 28.86,19.36 35.88,19.36 35.88,19.88 35.88,19.88" fill="#4a4a4a"/><polygon points="32.36,23.58 31.84,23.58 31.84,16.55 32.88,16.55 32.88,23.58 32.36,23.58 32.36,23.58" fill="#4a4a4a"/><path d="M1.58,38.16v0c-.023894-1.250322.883299-2.324404,2.12-2.51v0c0-2.949201,2.390799-5.34,5.34-5.34s5.34,2.390799,5.34,5.34c0,.12,0,.24,0,.36.32036-.117582.658746-.178492,1-.18c1.433001-.03396,2.689832.950557,3,2.35Z" fill="#fff" fill-rule="evenodd"/><path d="M1.08,38.16v0v0c.002322-.711592.257513-1.399191.72-1.94.372551-.434965.86182-.754205,1.41-.92.153532-3.124178,2.745181-5.570475,5.873014-5.543627s5.677107,2.517274,5.776986,5.643627c.17318-.010298.34682-.010298.52,0c1.600817-.00534,3.008326,1.058475,3.44,2.6l.14.61h-17.87v-.49Zm1.47-1.35c-.205374.247429-.352348.537959-.43.85h15.5c-.434712-.834185-1.299356-1.355287-2.24-1.35-.146487-.010256-.293513-.010256-.44,0l-.42.11-.71.26v-.75c0-.08,0-.13,0-.17v-.16c0-2.673058-2.166942-4.84-4.84-4.84s-4.84,2.166942-4.84,4.84v0v.45l-.42.06c-.472084.075023-.903384.311885-1.22.67Z" fill="#4a4a4a"/><path d="M7.8,7.94h35.13v4.26h-35.55v-4.26Zm34.28.85h-33.85v2.55h33.85v-2.55Z" fill="#4a4a4a"/><polygon points="33.59,8.44 33.09,8.28 35.65,0 36.65,0.31 34.08,8.59 33.59,8.44 33.59,8.44" fill="#4a4a4a"/><polygon points="37.33,2.94 37.17,3.43 32.85,2.1 33.16,1.1 37.48,2.44 37.33,2.94 37.33,2.94" fill="#4a4a4a"/><polygon points="37.46,5.21 37.31,5.7 32.98,4.37 33.29,3.37 37.61,4.71 37.46,5.21 37.46,5.21" fill="#4a4a4a"/><path d="M3.8,0.68c1.82805-.005514,3.31445,1.47194,3.31997,3.29999s-1.47193,3.314454-3.29998,3.31998-3.314459-1.47192-3.31999-3.29997c-.002656-.877868.34353-1.720835.962401-2.343457s1.459731-.973895,2.337599-.976543Z" fill="#fc0" fill-rule="evenodd"/><path d="M3.8,0.19c1.006285-.005614,1.972376.394521,2.68,1.11c1.48132,1.483532,1.48132,3.886468,0,5.37-.707624.715479-1.673715,1.115614-2.68,1.11-1.005172.002656-1.970228-.394102-2.682867-1.10299s-1.114484-1.671838-1.117133-2.67701c-.000954-1.011246.398065-1.981831,1.11-2.7.713238-.71321,1.681352-1.112693,2.69-1.11ZM5.78,2c-.528-.534994-1.248333-.836146-2-.836146s-1.472.301152-2,.836146c-.534994.528-.836146,1.248333-.836146,2s.301152,1.472.836146,2c1.104569,1.104569,2.895431,1.104569,4,0s1.104569-2.895431,0-4Z" fill="#4a4a4a"/></g></g></svg>