<svg id="e7gh15M3Vse1" xmlns="http://www.w3.org/2000/svg" xmlns:xlink="http://www.w3.org/1999/xlink" viewBox="0 0 39 35.85" shape-rendering="geometricPrecision" text-rendering="geometricPrecision"><g><g><g><g><path d="M0,0h39v35h-39Z" fill="#fff"/><g><path d="M13.25,31h18v4.49h-18Z" fill="#fff" stroke="#707070" stroke-width="0.75"/><circle r="6.37" transform="translate(19.62 7.37)" fill="#fff" stroke="#4a4a4a" stroke-width="0.75" stroke-miterlimit="10"/><path d="M8.75,16.74l3.06-2.11l3.68-.14L23.74,31h-8.25Z" fill="#00b4ff"/><path d="M23,31l-3.27-6L14,14.49h2.25c2.117755,1.000614,4.572245,1.000614,6.69,0h2.86c1.432169,0,2.80568.568927,3.818377,1.581623s1.581623,2.386208,1.581623,3.818377v15.58" fill="#fff" stroke="#4a4a4a" stroke-width="0.75" stroke-linecap="round" stroke-linejoin="round"/><path d="M23,31h-5.26l-3.3-6-4.88-8.91c1.014323-1.025698,2.397466-1.602008,3.84-1.6h.6L19.72,25Z" fill="none" stroke="#4a4a4a" stroke-width="0.75" stroke-miterlimit="10"/><path d="M14.44,25l3.3,6h-7.21c-.674477.000021-1.321042-.269275-1.796089-.748077s-.739243-1.127467-.733911-1.801923v0-8.56c.000194-1.422499.560639-2.787686,1.56-3.8Z" fill="#fff" stroke="#4a4a4a" stroke-width="0.75" stroke-miterlimit="10"/><path d="M14.44,25h-1.94" fill="none" stroke="#4a4a4a" stroke-width="0.75" stroke-miterlimit="10"/><path d="M19.72,25h4c1.656854,0,3,1.343146,3,3s-1.343146,3-3,3h-12" fill="none" stroke="#4a4a4a" stroke-width="0.75" stroke-miterlimit="10"/><path d="M9.56,16.09L9.5,16" fill="none" stroke="#4a4a4a" stroke-width="0.75" stroke-miterlimit="10"/><path d="M13.25,31v4.49" fill="none" stroke="#4a4a4a" stroke-width="0.75" stroke-linecap="round" stroke-miterlimit="10"/><path d="M25.8,21.23v4.5" fill="#fff" stroke="#4a4a4a" stroke-width="0.75" stroke-linecap="round" stroke-linejoin="round"/><path d="M25.8,30.23v5.24" fill="#fff" stroke="#4a4a4a" stroke-width="0.75" stroke-linecap="round" stroke-linejoin="round"/></g></g></g></g></g></svg>