<svg id="ebRL8l16mPy1" xmlns="http://www.w3.org/2000/svg" xmlns:xlink="http://www.w3.org/1999/xlink" viewBox="-13 7 60.81 13" shape-rendering="geometricPrecision" text-rendering="geometricPrecision"><g transform="matrix(.776435 0 0 0.462098 2.338276 7.575904)"><g><path d="M6.27,25.64C2.715272,25.515013,-0.078807,22.556052,0,19c-.112363-3.579166,2.691251-6.575054,6.27-6.7c3.576295.130338,6.376821,3.122925,6.27,6.7.078807,3.556052-2.715272,6.515013-6.27,6.64Zm0-12.53c-1.505933.054638-2.92817.706503-3.952622,1.811636s-1.566839,2.572614-1.507378,4.078364c-.095503,3.115133,2.345298,5.721337,5.46,5.83c3.114702-.108663,5.555503-2.714867,5.46-5.83.059461-1.50575-.482926-2.973232-1.507378-4.078364s-2.446689-1.756998-3.952622-1.811636Z" fill="#4a4a4a"/><path d="M6.27,15.93c1.656854,0,3,1.343146,3,3s-1.343146,3-3,3-3-1.343146-3-3s1.343146-3,3-3Z" fill="#fc0" fill-rule="evenodd"/><path d="M6.27,22.4C4.431553,22.356297,2.972033,20.838754,3,19c-.040595-.900444.28338-1.779257.898729-2.437888s1.470148-1.041502,2.371271-1.062112c.894087.031125,1.738582.418577,2.345313,1.076026s.925287,1.530267.884687,2.423974c.028384,1.823634-1.407307,3.334889-3.23,3.4Zm0-6c-1.342463.118083-2.372184,1.242353-2.372184,2.59s1.029721,2.471917,2.372184,2.59c1.342463-.118083,2.372184-1.242353,2.372184-2.59s-1.029721-2.471917-2.372184-2.59Z" fill="#4a4a4a"/><path d="M32.55,12.52c3.349227.114054,5.972359,2.920716,5.86,6.27.106716,3.345437-2.514806,6.145903-5.86,6.26-3.349147-.108711-5.976652-2.910786-5.87-6.26-.106713-3.350959,2.519284-6.1559,5.87-6.27Z" fill="#00b4ff" fill-rule="evenodd"/><path d="M32.55,25.48c-3.574726-.124975-6.37674-3.114683-6.27-6.69-.112363-3.579166,2.691251-6.575054,6.27-6.7c3.574794.130312,6.372441,3.124599,6.26,6.7.112366,3.573644-2.686773,6.565057-6.26,6.69Zm0-12.53c-3.120224.108667-5.5655,2.719345-5.47,5.84-.089884,3.116805,2.353794,5.72131,5.47,5.83c3.110748-.114026,5.545584-2.718631,5.45-5.83.067796-3.093884-2.357675-5.670669-5.45-5.79Z" fill="#4a4a4a"/><path d="M32.55,15.77c1.226468-.06961,2.371447.61554,2.889819,1.729255s.305379,2.430924-.537573,3.324513-2.145513,1.182973-3.287541.730378-1.892731-1.555706-1.894705-2.784146c-.039324-1.607001,1.223438-2.945618,2.83-3Z" fill="#fff" fill-rule="evenodd"/><path d="M32.55,22.24c-1.846569-.059813-3.296119-1.603315-3.24-3.45-.06667-1.198673.534922-2.335955,1.563313-2.955369s2.314984-.619415,3.343374,0s1.629983,1.756696,1.563313,2.955369c.056191,1.842912-1.387384,3.384811-3.23,3.45Zm0-6c-1.067635-.061531-2.064055.536934-2.5113,1.508326s-.254084,2.11756.486829,2.888714s1.878441,1.00999,2.866939.601943s1.626326-1.379741,1.607532-2.448983c.018825-.668417-.228782-1.316912-.688301-1.802688s-1.093267-.769003-1.761699-.787312Z" fill="#4a4a4a"/><path d="M30.82,10.31h-26.51c-.589042-.020677-1.145154-.27685-1.543685-.711099s-.606148-1.010251-.576315-1.598901c-.017098-1.196067.924597-2.186624,2.12-2.23h26.51C32.036649,5.786466,33.011123,6.78329,33,8c.029998.598833-.185718,1.183967-.59724,1.620029s-.983195.685271-1.58276.689971ZM4.31,6.63C3.576899,6.662137,2.999296,7.266195,3,8c-.021782.3668.104695.726975.351023.999628s.591856.434926.958977.450372h26.51c.368888-.012828.716993-.173966.965472-.446915s.376305-.634617.354528-1.003085c.022484-.752976-.567178-1.382843-1.32-1.41Z" fill="#4a4a4a"/><path d="M14.66,6.2l6.79-2c3.12-.91,7.13-.14,6,4.72-.11.5-.39.92-.87.92h-12v-3.64Z" fill="#fff" fill-rule="evenodd"/><path d="M26.62,10.31h-12.36v-4.44l7.08-2.05c1.85-.53,4.33-.58,5.74.88.65.68,1.33,2,.8,4.36-.18.79-.65,1.25-1.26,1.25ZM15.07,9.45h11.55c.31,0,.43-.41.47-.59.36-1.59.17-2.78-.58-3.55-1.16-1.21-3.4-1.11-5-.66L15.07,6.53Z" fill="#4a4a4a"/><path d="M15.44,20.54L14,17.37l-5.35.68L7.63,16l4-4-.78-1.77.73-.37L16,19.68l8-.05l2.25-8.27h2.87L24.86,0.86h-4.3v-.86h4.83L31.8,15.84l-.74.34-1.62-4h-2.6l-2.26,8.27ZM8.64,16.2l.49.93l4.55-.58L12,12.83Z" fill="#4a4a4a"/><polygon points="17.24,12.54 22.64,12.54 22.64,15.82 17.24,15.82 17.24,12.54 17.24,12.54" fill="#00b4ff" fill-rule="evenodd"/><path d="M23.05,16.25h-6.21v-4.14h6.21Zm-5.41-.86h4.6v-2.39h-4.6Z" fill="#00b4ff"/><polygon points="17.41,19.81 16.99,19.81 16.99,17.25 17.83,17.25 17.83,19.81 17.41,19.81 17.41,19.81" fill="#4a4a4a"/><polygon points="19.12,19.83 18.7,19.83 18.7,17.26 19.54,17.26 19.54,19.83 19.12,19.83 19.12,19.83" fill="#4a4a4a"/><polygon points="20.79,19.83 20.37,19.83 20.37,17.27 21.21,17.27 21.21,19.83 20.79,19.83 20.79,19.83" fill="#4a4a4a"/><polygon points="22.54,19.83 22.12,19.83 22.12,17.26 22.96,17.26 22.96,19.83 22.54,19.83 22.54,19.83" fill="#4a4a4a"/></g></g></svg>