<svg id="eWAtmygHZYK1" xmlns="http://www.w3.org/2000/svg" xmlns:xlink="http://www.w3.org/1999/xlink" viewBox="-17.5 0 75.65 34" shape-rendering="geometricPrecision" text-rendering="geometricPrecision"><g transform="matrix(.937749 0 0 0.878659 1.265253 0.485604)"><g><path d="M39,11.62v21.61c.01348.539042-.191267,1.06069-.567811,1.446648s-.892978.603521-1.432189.603352h-27.3c-.539211.000169-1.055645-.217395-1.432189-.603352s-.581291-.907606-.567811-1.446648v-21.61h1v21.61c-.001556.566573.434981,1.038034,1,1.08h27.23c.283637-.002433.55558-.113358.76-.31.205445-.203479.320713-.480845.32-.77v-21.61Z" fill="#4a4a4a"/><polygon points="12.7,15.96 19.52,15.96 19.52,22.57 12.7,22.57 12.7,15.96 12.7,15.96" fill="#fc0" fill-rule="evenodd"/><path d="M12.7,15.47h7.3v7.59h-7.79v-7.59Zm6.34,1h-5.86v5.65h5.82v-5.68Z" fill="#4a4a4a"/><path d="M20.57,25.76h5.55v9.49h-6v-9.49Zm4.58,1h-4.1v7.57h4.1v-7.61Z" fill="#4a4a4a"/><polygon points="19.52,19.26 19.52,19.77 12.7,19.77 12.7,18.76 19.52,18.76 19.52,19.26 19.52,19.26" fill="#4a4a4a"/><polygon points="16.1,22.86 15.6,22.86 15.6,16.03 16.6,16.03 16.6,22.86 16.1,22.86 16.1,22.86" fill="#4a4a4a"/><path d="M27,15.51h7.3v7.58h-7.81v-7.58Zm6.34,1h-5.88v5.65h5.86v-5.68Z" fill="#4a4a4a"/><polygon points="33.8,19.3 33.8,19.81 26.98,19.81 26.98,18.8 33.8,18.8 33.8,19.3 33.8,19.3" fill="#4a4a4a"/><polygon points="30.38,22.9 29.88,22.9 29.88,16.07 30.88,16.07 30.88,22.9 30.38,22.9 30.38,22.9" fill="#4a4a4a"/><path d="M0.48,37.05v0c.005738-1.194761.879154-2.208093,2.06-2.39v0c0-2.860835,2.319165-5.18,5.18-5.18s5.18,2.319165,5.18,5.18c0,.11,0,.23,0,.35.321268-.113017.659434-.170505,1-.17c1.36081.018098,2.538961.949945,2.87,2.27Z" fill="#00b4ff" fill-rule="evenodd"/><path d="M0,37.06v0v0c-.00278-1.280926.840776-2.409742,2.07-2.77.149369-3.031403,2.663196-5.40542,5.69818-5.381269s5.510712,2.437873,5.61182,5.471269c.169856-.009906.340144-.009906.51,0c.752504-.032028,1.494439.185981,2.11.62.630582.502923,1.065647,1.210346,1.23,2l.13.59h-17.36v-.48Zm1.43-1.31c-.20259.235079-.343491.516881-.41.82h15.05c-.427059-.807573-1.266464-1.311986-2.18-1.31-.143149-.010285-.286851-.010285-.43,0-.139012.027286-.275998.064038-.41.11l-.69.25.05-.73c.003884-.053263.003884-.106737,0-.16v-.13c0-2.595738-2.104262-4.7-4.7-4.7s-4.7,2.104262-4.7,4.7h-.01v.4l-.42.06c-.456666.073688-.87367.303394-1.18.65Z" fill="#4a4a4a"/><polygon points="31.57,8.2 31.09,8.04 33.58,0 34.54,0.3 32.05,8.34 31.57,8.2 31.57,8.2" fill="#00b4ff"/><polygon points="35.2,2.85 35.05,3.33 30.86,2.03 31.16,1.07 35.35,2.37 35.2,2.85 35.2,2.85" fill="#00b4ff"/><polygon points="35.33,5.06 35.18,5.54 30.98,4.24 31.28,3.28 35.48,4.58 35.33,5.06 35.33,5.06" fill="#00b4ff"/><path d="M6.53,7.71h34.12v4.13h-34.53v-4.13Zm33.29.83h-32.88v2.46h32.88v-2.46Z" fill="#4a4a4a"/><polygon points="32.54,35.16 30.68,28.85 33.2,28.02 32.67,26 34.04,28.41 31.74,29.41 33.59,34.77 32.54,35.16 32.54,35.16" fill="#4a4a4a" fill-rule="evenodd"/><path d="M32.51,35.17l-1.87-6.34L33.15,28l-.51-2h.06l1.39,2.44-2.3,1l1.84,5.37-1.11.4v0Zm-1.79-6.3l1.84,6.24l1-.36-1.86-5.36l2.29-1-1.22-2.14.47,1.75-2.52.83Z" fill="#4a4a4a"/></g></g></svg>