<svg id="ebkiRBCZ6791" xmlns="http://www.w3.org/2000/svg" xmlns:xlink="http://www.w3.org/1999/xlink" viewBox="-20 0 81.68 35" shape-rendering="geometricPrecision" text-rendering="geometricPrecision"><g><g><path d="M8.53,33.87h-.18c-1.61803-.02675-2.92325-1.33197-2.95-2.95v-3h6.08v3c-.027292,1.637295-1.362477,2.950227-3,2.95Zm-.18-1h.18c1.069159-.005469,1.934531-.870841,1.94-1.94v-2h-4.07v2c.031552,1.061952.8879,1.913908,1.95,1.94Z" fill="#4a4a4a"/><path d="M33.92,33.85h-.18c-1.656854,0-3-1.343146-3-3v-3h6.08v3c.000227,1.637523-1.312705,2.972708-2.95,3Zm-.18-1h.18c.514157-.000948,1.00691-.205962,1.37-.57.361019-.369172.565266-.863667.57-1.38v-2h-4.06v2c.004734.516333.208981,1.010828.57,1.38.36309.364038.855843.569052,1.37.57Z" fill="#4a4a4a"/><path d="M10.45,0h20.33c.754542-.010669,1.479362.293756,2,.84.593482.628638,1.013826,1.400418,1.22,2.24l2.34,8.39l5.17,4.86c.097658.094076.151966.224414.15.36v0v8c-.016405,2.316663-1.893304,4.189104-4.21,4.2h-33c-2.315047-.010946-4.189054-1.884953-4.2-4.2v-8c.002272-.149577.067649-.291228.18-.39l5-4.81L7.25,3.11c.160369-.842446.555556-1.622419,1.14-2.25.540495-.555831,1.284732-.866531,2.06-.86ZM30.78,1h-20.33c-.507787-.006534-.995934.195956-1.35.56-.448465.490141-.749956,1.096587-.87,1.75L6.37,11.85v0c-.020006.098576-.068715.189036-.14.26L1.28,16.9v7.84c.010965,1.761126,1.438849,3.184548,3.2,3.19h33c1.761151-.005452,3.189035-1.428874,3.2-3.19v-7.83L35.53,12.1c-.063771-.064851-.111685-.143567-.14-.23L33,3.35c-.158246-.66903-.481394-1.287825-.94-1.8-.334221-.349624-.796329-.548186-1.28-.55Z" fill="#4a4a4a"/><path d="M12.37,3.4h16.92c.9,0,1.43.75,1.63,1.63l1.62,6.83-23.25-.11L10.74,5c.19-.88.74-1.63,1.63-1.63Z" fill="#00b4ff" fill-rule="evenodd"/><path d="M12.37,2.89h16.92c.515275-.004706,1.010132.201183,1.37.57.379227.404713.63884.906631.75,1.45l1.77,7.45-24.52-.11l1.59-7.33c.106529-.544993.366771-1.048127.75-1.45.36125-.37403.860013-.583655,1.38-.58Zm16.92,1h-16.92c-.250528.006085-.48964.106012-.67.28-.247464.282584-.410347.629145-.47,1L9.91,11.25l22,.1-1.48-6.21c-.062515-.371923-.228915-.718591-.48-1-.172416-.179715-.410954-.280913-.66-.28Z" fill="#00b4ff"/><path d="M33.2,12.37v0L8.65,12.26v0l1.59-7.32c.103346-.556973.367554-1.071484.76-1.48.363648-.376565.86655-.586409,1.39-.58h16.9c.518961-.008642,1.018405.19765,1.38.57.377075.411534.639189.915068.76,1.46ZM8.68,12.23l24.48.12L31.4,4.91c-.11289-.539812-.372395-1.03806-.75-1.44-.358476-.363608-.84943-.565765-1.36-.56h-16.92c-.515733-.007067-1.011484.199195-1.37.57-.377916.400337-.634515.899664-.74,1.44Zm23.24-.86v0l-22-.11v0l1.33-6.12c.055861-.372015.219224-.719595.47-1c.177547-.185481.42324-.290261.68-.29h16.89c.253772.000123.496222.105065.67.29.254711.280222.424632.627.49,1Zm-22-.14l22,.11-1.5-6.19c-.058701-.373121-.225595-.720817-.48-1-.169337-.178183-.404187-.279349-.65-.28h-16.92c-.248351.002477-.485629.10314-.66.28-.235636.269762-.394502.597855-.46.95Z" fill="#00b4ff"/><path d="M13.68,17.38h14.76c.56434-.000081,1.104962.226981,1.5.63.403594.398755.630514.942644.63,1.51v4.4c-.010851,1.171842-.958158,2.119149-2.13,2.13h-14.76c-.567356.000514-1.111245-.226406-1.51-.63-.403019-.395038-.630081-.93566-.63-1.5v-4.4c.005474-1.179615.960385-2.134526,2.14-2.14Zm14.76,1h-14.76c-.624082,0-1.13.505918-1.13,1.13v4.4c.02155.608407.521211,1.090382,1.13,1.09h14.76c.616296-.00543,1.11457-.503704,1.12-1.12v-4.4c.000024-.620197-.499827-1.124512-1.12-1.13Z" fill="#4a4a4a"/><path d="M5.16,17.14h1.76c1.353098,0,2.45,1.096902,2.45,2.45v.68h-5v-2.27c-.000033-.448997.361037-.814524.81-.82Z" fill="#fc0" fill-rule="evenodd"/><path d="M5.16,16.64h1.76c1.61803.02675,2.92325,1.33197,2.95,2.95v1.19h-6v-2.78c-.002665-.349163.134174-.684941.380137-.932781s.58069-.387229.929863-.387219Zm1.76,1h-1.76c-.082379-.000423-.161538.03196-.22.09-.055492.060117-.087446.138227-.09.22v1.81h4v-.18c-.005469-1.069159-.870841-1.934531-1.94-1.94Z" fill="#4a4a4a"/><path d="M4.29,22.89h4.39c.326216,0,.639072.129589.869741.360259s.360259.543525.360259.869741v1.31h-5.62v-2.54Z" fill="#fc0" fill-rule="evenodd"/><path d="M4.29,22.39h4.39c.953181.005462,1.724538.776819,1.73,1.73v1.81h-6.62v-3.54Zm4.39,1h-3.88v1.53h4.6v-.81c0-.397645-.322355-.72-.72-.72Z" fill="#4a4a4a"/><path d="M36.91,17.25h-1.75c-.64978,0-1.272947.258124-1.732412.717588s-.717588,1.082632-.717588,1.732412v.68h5v-2.31c0-.217478-.086393-.426048-.240172-.579828s-.36235-.240172-.579828-.240172Z" fill="#fc0" fill-rule="evenodd"/><path d="M36.91,17.75h-1.75c-1.065859.026329-1.923671.884141-1.95,1.95v.18h4v-1.81c-.009879-.172473-.147527-.310121-.32-.32Zm-1.75-1h1.75c.351729-.005454.690655.131865.939395.380605s.386059.587666.380605.939395v2.81h-6v-1.18c-.002669-.783204.307277-1.535099.861089-2.088911s1.305707-.863758,2.088911-.861089Z" fill="#4a4a4a"/><path d="M37.78,23h-4.38c-.67931,0-1.23.55069-1.23,1.23v1.31h5.61v-2.54Z" fill="#fc0" fill-rule="evenodd"/><path d="M37.28,23.5h-3.88c-.192347.003269-.375629.082332-.51.22-.134919.135387-.210469.318865-.21.51v.77h4.6v-1.5Zm-3.88-1h4.89v3.5h-6.62v-1.77c-.005418-.460464.175109-.903651.500729-1.229271s.768807-.506147,1.229271-.500729Z" fill="#4a4a4a"/><path d="M37,8.08h2.5c1.218274.005475,2.204525.991726,2.21,2.21-.010831,1.061391-.868609,1.919169-1.93,1.93h-4.1v-2.82c.005444-.726749.593251-1.314556,1.32-1.32Zm2.5,1h-2.5c-.082379-.000423-.161538.03196-.22.09-.054043.061029-.085773.138592-.09.22v1.81h3.09c.244792.004339.480326-.093498.65-.27.17354-.171682.270826-.405889.27-.65c0-.31826-.126428-.623484-.351472-.848528s-.530268-.351472-.848528-.351472Z" fill="#4a4a4a"/><path d="M4.7,9h-2.49c-.32173-.002692-.631065.123925-.85857.35143s-.354122.53684-.35143.85857c-.000826.244111.09646.478318.27.65.169674.176502.405208.274339.65.27h3.08v-1.81c-.001017-.08411-.037298-.163929-.1-.22-.049886-.059662-.122339-.095888-.2-.1ZM2.21,8h2.49c.352866-.000868.69139.139583.94.39.237916.250415.367302.584662.36.93v2.82h-4.07c-1.061391-.010831-1.919169-.868609-1.93-1.93.005475-1.218274.991726-2.204525,2.21-2.21Z" fill="#4a4a4a"/><polygon points="20.87,25.42 20.38,25.42 20.38,18.39 21.35,18.39 21.35,25.42 20.87,25.42 20.87,25.42" fill="#4a4a4a"/><polygon points="23.74,25.57 23.26,25.57 23.26,18.26 24.23,18.26 24.23,25.57 23.74,25.57 23.74,25.57" fill="#4a4a4a"/><polygon points="15.26,25.37 14.77,25.37 14.77,18.34 15.74,18.34 15.74,25.37 15.26,25.37 15.26,25.37" fill="#4a4a4a"/><polygon points="18.13,25.52 17.65,25.52 17.65,18.21 18.62,18.21 18.62,25.52 18.13,25.52 18.13,25.52" fill="#4a4a4a"/><polygon points="26.6,25.31 26.12,25.31 26.12,18.28 27.09,18.28 27.09,25.31 26.6,25.31 26.6,25.31" fill="#4a4a4a"/></g></g></svg>