<svg id="eVNpemdOLfG1" xmlns="http://www.w3.org/2000/svg" xmlns:xlink="http://www.w3.org/1999/xlink" viewBox="-25 0 90.82 40" shape-rendering="geometricPrecision" text-rendering="geometricPrecision"><g><g><path d="M3.7,5.88h34.42c1.783242.005453,3.229034,1.446783,3.24,3.23v22.39c-.005511,1.785496-1.454495,3.230009-3.24,3.23h-34.42c-1.785505.000009-3.234489-1.444504-3.24-3.23v-22.39C0.470966,7.326783,1.916758,5.885453,3.7,5.88Z" fill="#fff" fill-rule="evenodd"/><path d="M38.12,35.2h-34.42c-.981301,0-1.92241-.38982-2.616295-1.083705C0.38982,33.42241,0,32.481301,0,31.5L0,9.11c.005512-2.039547,1.660445-3.690007,3.7-3.69h34.42c2.039555-.000007,3.694488,1.650453,3.7,3.69v22.39c0,.981301-.38982,1.92241-1.083705,2.616295s-1.634994,1.083705-2.616295,1.083705ZM3.7,6.34c-1.527551.005485-2.764515,1.242449-2.77,2.77v22.39c0,.73465.291838,1.43921.811314,1.958686s1.224036.811314,1.958686.811314h34.42c.73465,0,1.43921-.291838,1.958686-.811314s.811314-1.224036.811314-1.958686v-22.39c-.005485-1.527551-1.242449-2.764515-2.77-2.77Z" fill="#4a4a4a"/><path d="M7.1,34.82h2.3c.307668.002509.601258.129275.81406.351493s.326746.521019.31594.828507v0c-.021399.610073-.519572,1.09502-1.13,1.1h-2.3c-.598745-.020665-1.079335-.501255-1.1-1.1v0c-.016964-.627677.472678-1.152929,1.1-1.18Z" fill="#fff" fill-rule="evenodd"/><path d="M9.4,37.56h-2.3c-.883656,0-1.6-.716344-1.6-1.6s.716344-1.6,1.6-1.6h2.3c.883656,0,1.6.716344,1.6,1.6s-.716344,1.6-1.6,1.6ZM7.1,35.29c-.179421-.002678-.352419.066727-.480239.192668s-.199781.297891-.199761.477332c0,.375554.304446.68.68.68h2.3c.371643-.005466.67004-.308317.67-.68c0-.177695-.070589-.348112-.196238-.473762s-.296067-.196238-.473762-.196238Z" fill="#4a4a4a"/><path d="M32.92,34.73h2.3c.627341.005432,1.134568.512659,1.14,1.14v0c-.010821.623432-.516496,1.124672-1.14,1.13h-2.3c-.302347,0-.59231-.120107-.806102-.333898s-.333898-.503755-.333898-.806102v0c.005432-.627341.512659-1.134568,1.14-1.14Z" fill="#fff" fill-rule="evenodd"/><path d="M35.22,37.47h-2.3c-.883656,0-1.6-.716344-1.6-1.6s.716344-1.6,1.6-1.6h2.3c.883656,0,1.6.716344,1.6,1.6s-.716344,1.6-1.6,1.6Zm-2.3-2.27c-.371683-.00004-.674534.298357-.68.67.005372.373306.306694.674628.68.68h2.3c.371643-.005466.67004-.308317.67-.68c0-.177695-.070589-.348112-.196238-.473762s-.296067-.196238-.473762-.196238Z" fill="#4a4a4a"/><polygon points="8.27,5.88 12.85,5.88 12.85,34.73 8.27,34.73 8.27,5.88 8.27,5.88" fill="#00b4ff" fill-rule="evenodd"/><path d="M13.24,35.13h-5.37v-29.65h5.37Zm-4.57-.8h3.78v-28h-3.78Z" fill="#4a4a4a"/><path d="M29.19,6.25h-18v-.66c.002623-1.490435.599283-2.918336,1.657863-3.967532s2.491738-1.633116,3.982137-1.622468h6.78c3.083366.005516,5.580005,2.506629,5.58,5.59Zm-17-.93h16.07c-.147844-2.46152-2.184051-4.383875-4.65-4.39h-6.78c-2.46793.00115-4.507009,1.926215-4.65,4.39Z" fill="#4a4a4a"/><polygon points="28.81,5.88 33.39,5.88 33.39,34.71 28.81,34.71 28.81,5.88 28.81,5.88" fill="#00b4ff" fill-rule="evenodd"/><path d="M33.79,35.11h-5.38v-29.63h5.38Zm-4.58-.8h3.79v-28h-3.79Z" fill="#4a4a4a"/><path d="M33.78,25.61l.6.22c.78118.290276,1.179505,1.158534.89,1.94l-.34.91c-.294309.777224-1.161352,1.170522-1.94.88l-.6-.23c-.771879-.294313-1.163979-1.15426-.88-1.93l.34-.91c.290001-.775913,1.154042-1.16988,1.93-.88Z" fill="#fc0" fill-rule="evenodd"/><path d="M33.52,30.12c-.236212.001359-.470477-.042778-.69-.13l-.6-.22c-1.00629-.391862-1.519779-1.511798-1.16-2.53l.34-.91c.391862-1.00629,1.511798-1.519779,2.53-1.16l.61.23c1.002347.39578,1.510887,1.514569,1.15,2.53l-.34.91c-.173081.485484-.533159.88157-1,1.1-.263656.120136-.550267.181553-.84.18ZM33.26,26c-.443503-.007307-.843757.264866-1,.68l-.34.91c-.109003.257686-.105066.549253.010856.803901s.333226.449086.599144.536099l.61.22c.256559.105657.545483.099969.797685-.015702s.445009-.330929.532315-.594298l.34-.91c.105657-.256559.099969-.545483-.015702-.797685s-.330929-.445009-.594298-.532315l-.6-.23c-.109139-.040402-.223778-.064005-.34-.07Z" fill="#4a4a4a"/><polygon points="6.28,23.5 10.26,23.5 10.26,27.28 6.28,27.28 6.28,23.5 6.28,23.5" fill="#fc0" fill-rule="evenodd"/><path d="M10.72,27.75h-4.9v-4.75h4.9Zm-4-.93h3v-2.82h-3Z" fill="#4a4a4a"/><path d="M8.34,14.65h4.46c.826158.005453,1.494547.673842,1.5,1.5v2c0,.828427-.671573,1.5-1.5,1.5h-4.46c-.828427,0-1.5-.671573-1.5-1.5v-2c.005453-.826158.673842-1.494547,1.5-1.5Z" fill="#00b4ff" fill-rule="evenodd"/><path d="M12.8,20.09h-4.46c-1.104569,0-2-.895431-2-2v-2c0-1.104569.895431-2,2-2h4.46c1.104569,0,2,.895431,2,2v2c0,1.104569-.895431,2-2,2Zm-4.46-5c-.552285,0-1,.447715-1,1v2c0,.552285.447715,1,1,1h4.46c.552285,0,1-.447715,1-1v-2c0-.552285-.447715-1-1-1Z" fill="#4a4a4a"/><path d="M28.92,14.45h4.45c.407505-.000143.797768.164425,1.082126.456316s.438669.686322.427874,1.093684v2c-.005497.830042-.67994,1.500018-1.51,1.5h-4.45c-.828427,0-1.5-.671573-1.5-1.5v-2c0-.828427.671573-1.5,1.5-1.5Z" fill="#00b4ff" fill-rule="evenodd"/><path d="M33.37,19.89h-4.45c-1.104569,0-2-.895431-2-2v-1.89c0-1.104569.895431-2,2-2h4.45c1.104569,0,2,.895431,2,2v2c-.058464,1.061392-.937,1.891609-2,1.89Zm-4.45-5c-.552285,0-1,.447715-1,1v2c0,.552285.447715,1,1,1h4.45c.552285,0,1-.447715,1-1v-1.89c0-.552285-.447715-1-1-1Z" fill="#4a4a4a"/><polygon points="30.75,11.25 25.82,13.63 27.05,10 30.75,11.25 30.75,11.25" fill="#fc0"/><path d="M25.82,14.09c-.109931.000359-.216357-.038664-.3-.11-.142848-.123425-.197985-.320342-.14-.5l1.23-3.63c.085097-.241012.347196-.36984.59-.29l3.7,1.25c.175288.064708.295597.227102.306442.413637s-.089834.361778-.256442.446363L26,14.05c-.057138.02395-.118096.037496-.18.04Zm1.52-3.5l-.72,2.14l2.91-1.4Z" fill="#4a4a4a"/></g></g></svg>